<svg id="Layer_1" data-name="Layer 1" xmlns="http://www.w3.org/2000/svg" xmlns:xlink="http://www.w3.org/1999/xlink" viewBox="0 0 1614.43 922.19">
  <defs>
    <style>
      .cls-1 {
        fill: url(#linear-gradient);
      }

      .cls-2 {
        fill: #e1a77f;
      }

      .cls-3 {
        fill: #ad4e9c;
      }

      .cls-4 {
        fill: #4d0d2f;
      }

      .cls-5 {
        fill: #5d88c6;
      }

      .cls-6 {
        fill: #5b1541;
      }

      .cls-7 {
        fill: #190f15;
      }

      .cls-8 {
        fill: #240f1c;
      }

      .cls-9 {
        fill: #edbb8f;
      }

      .cls-10 {
        fill: #0aa2b1;
      }

      .cls-11 {
        fill: #7297cf;
      }

      .cls-12 {
        fill: #0db6d1;
      }

      .cls-13 {
        fill: #dce9ee;
      }

      .cls-14 {
        fill: #ca885d;
      }

      .cls-15 {
        fill: #f7e9db;
      }

      .cls-16 {
        fill: #dccdc4;
      }

      .cls-17 {
        fill: none;
        stroke: #5b1541;
        stroke-linecap: round;
        stroke-linejoin: round;
        stroke-width: 2.08px;
      }

      .cls-18 {
        opacity: 0.56;
      }

      .cls-19 {
        fill: #25429a;
      }

      .cls-20 {
        fill: #69625c;
      }
    </style>
    <linearGradient id="linear-gradient" y1="281" x2="1525" y2="281" gradientUnits="userSpaceOnUse">
      <stop offset="0" stop-color="#fff"/>
      <stop offset="0.8" stop-color="#f05e6f"/>
    </linearGradient>
  </defs>
  <title>moi2</title>
  <g>
    <rect class="cls-1" width="1525" height="562"/>
    <g>
      <g>
        <path class="cls-2" d="M1616.24,286.2s2.11,7.56,0,23.92l46.82,9.33,20-76.84Z" transform="translate(-152.78 -78.91)"/>
        <path class="cls-2" d="M1663.06,320.49l-.2,0L1616,311.14a1.06,1.06,0,0,1-.83-1.15c2-15.9.06-23.44,0-23.52a1.05,1.05,0,0,1,.44-1.14l66.81-43.59a1,1,0,0,1,1.57,1.14l-20,76.83A1,1,0,0,1,1663.06,320.49Zm-45.67-11.2,44.92,8.95L1681.38,245l-64,41.72C1617.88,288.92,1619,296.2,1617.39,309.29Z" transform="translate(-152.78 -78.91)"/>
      </g>
      <path class="cls-3" d="M1650.34,539.2a13.6,13.6,0,0,1-1.56-.09,11.93,11.93,0,0,1-9.58-7.26c-17.76-42-33.79-65.76-35.89-68.8-6.48-1.33-9.23-1.9-10.4-2.3l0,.16c-10.16-2.08-18.21-8.54-25.58-15l-.27-.24c-7-6.11-14.91-13-18.12-22.08a9.72,9.72,0,0,1,2.26-10.5,25,25,0,0,1,3.2-2.36l-2.74-3.63-.12-.2c-2.5-5.58-1.74-11.4,2.26-17.31a9.4,9.4,0,0,1-2.24-7.95,11.09,11.09,0,0,1,5.38-7.36,7.06,7.06,0,0,1,3.46-1.09l.73,0c3.77.31,8.76,3.47,12.76,6l2,1.22,4.75-.41c5.83-.5,11.85-1,17.75-1.73a12.13,12.13,0,0,1,5.15.12c3.91,1.21,5.6,5.59,5.85,9,.4,5.46.26,11.12.12,16.6-.07,2.73-.14,5.45-.15,8.14l2.16,3.76c2.18,3.78,4.36,7.56,6.46,11.39l1.9,3.49c4.75,8.68,9.65,17.66,15.29,26a207.91,207.91,0,0,0,23.44,29.07,60.66,60.66,0,0,0,10.06,7.86,16.29,16.29,0,0,1,7.16,11,17,17,0,0,1-3.24,13.19l-12.67,16.6A11.85,11.85,0,0,1,1650.34,539.2Zm-56.22-80.15,10,2.05.4.09.23.33c.17.24,17.28,24.44,36.34,69.52a9.95,9.95,0,0,0,17.07,2.18l12.67-16.6a14.93,14.93,0,0,0,2.84-11.57,14.17,14.17,0,0,0-6.25-9.6,62.23,62.23,0,0,1-10.39-8.14h0A209.36,209.36,0,0,1,1633.36,458c-5.69-8.4-10.62-17.42-15.39-26.15l-1.9-3.48c-2.1-3.82-4.27-7.59-6.44-11.35l-4.76-8.3,2.34,1.69c0-2.12.08-4.25.13-6.39.14-5.42.29-11-.11-16.39-.21-2.73-1.48-6.25-4.39-7.15a10.65,10.65,0,0,0-4.29,0c-5.93.73-12,1.24-17.83,1.74l-5.42.47-.29-.18-2.27-1.42c-3.81-2.41-8.56-5.42-11.83-5.69a4.7,4.7,0,0,0-.52,0,5.05,5.05,0,0,0-2.44.8,9,9,0,0,0-4.39,6,7.35,7.35,0,0,0,2.24,6.69l.69.62-.54.75c-4,5.55-4.85,10.74-2.6,15.87l3.49,4.63h0l0,0-1.67,1.22a.9.9,0,0,0,.85.36,21.38,21.38,0,0,0-3.42,2.38,7.62,7.62,0,0,0-1.77,8.32c3,8.55,10.74,15.28,17.53,21.21l.28.24c7.46,6.52,14.95,12.53,24.63,14.52Z" transform="translate(-152.78 -78.91)"/>
      <g>
        <path class="cls-2" d="M1489.1,395.75l24.94-6.09,6.42-31.74q-5-9.71-9.77-19.57c-2.17-4.53-4.81-9.15-6.21-14-1.62-5.62-1.79-11.55-3.45-17.16a34.27,34.27,0,0,0-13.6-18.48,101.1,101.1,0,0,1-18.73-16.43c-3.34-3.65-6.23-7.92-7.17-12.78-.52-2.68-.75-6-3.18-7.2-1.81-.92-4.1-.13-5.53,1.31-3.83,3.88-3.93,10.28-2.27,15.13a35.29,35.29,0,0,0,4.41,8.29c.51.76,3.82,6.57-.26,5.19,0,0-24.57-8.12-37.07-3.95,0,0-5.82-7.08-7.28-8.12-1.71-1.23-2.84-6.38-4.78-8.23-4.76-4.56-12-5.55-18.27-3.94-2.71.69-4.59,2.42-4.46,5.34-3.6-.09-8.82,1.53-8.51,6,.31,4.61,4,4.87,7.64,5.58,5.28,1,10.57,2.4,15.24,5.14a49.52,49.52,0,0,1,8.57,6.71c6.62,6.17,11.94,16.69,21.43,17.35,0,0,40.19,13.32,42.89,14.57s10,3.33,11.25,15.2c0,0,3.12,22.9,3.74,31.86Z" transform="translate(-152.78 -78.91)"/>
        <path class="cls-2" d="M1489.1,396.79a1.07,1.07,0,0,1-.58-.18,1,1,0,0,1-.45-.72l-4-30c-.63-8.88-3.72-31.62-3.75-31.85-1.09-10.31-6.79-12.74-9.86-14l-.79-.35c-2.1-1-28.75-9.87-42.66-14.49-7.16-.56-11.94-6.22-16.56-11.7a67,67,0,0,0-5.38-5.91,48.61,48.61,0,0,0-8.38-6.58c-4.73-2.77-10.19-4.08-14.91-5l-.93-.17c-3.38-.63-7.21-1.34-7.56-6.35a5.58,5.58,0,0,1,1.55-4.35c1.77-1.84,4.68-2.61,7-2.74.29-2.62,2.13-4.54,5.2-5.33,7.23-1.85,14.6-.25,19.25,4.19a15,15,0,0,1,2.68,4.64c.63,1.43,1.35,3.05,2,3.51,1.33.95,5.58,6,7,7.76,12.83-3.74,36,3.84,37,4.17a2.82,2.82,0,0,0,.66.15,10.74,10.74,0,0,0-1.58-3.78,36.32,36.32,0,0,1-4.53-8.53c-1.6-4.68-1.9-11.73,2.51-16.2,1.57-1.58,4.34-2.73,6.74-1.5,2.57,1.3,3.08,4.25,3.54,6.84.06.37.12.73.19,1.08.78,4,3,8.06,6.91,12.28A99.84,99.84,0,0,0,1488,287.87a35.62,35.62,0,0,1,14,19,70.66,70.66,0,0,1,1.78,8.82,66.33,66.33,0,0,0,1.67,8.35,63.85,63.85,0,0,0,4.52,10.54c.56,1.1,1.11,2.19,1.63,3.28,3,6.32,6.32,12.9,9.75,19.55a1.07,1.07,0,0,1,.1.68l-6.42,31.74a1.08,1.08,0,0,1-.78.8l-24.93,6.09A1.07,1.07,0,0,1,1489.1,396.79ZM1382.56,264.38c-2.13,0-4.8.64-6.22,2.12a3.48,3.48,0,0,0-1,2.76c.23,3.26,2.27,3.79,5.87,4.46l.94.17c4.9,1,10.57,2.34,15.57,5.26a51.2,51.2,0,0,1,8.75,6.85,72.42,72.42,0,0,1,5.54,6.09c4.38,5.18,8.9,10.54,15.25,11a1.09,1.09,0,0,1,.26.05c1.64.55,40.27,13.36,43,14.62l.73.32c3.22,1.37,9.9,4.22,11.11,15.71,0,.2,3.13,23,3.75,31.89l3.85,28.81,23.17-5.66,6.22-30.73c-3.38-6.56-6.62-13-9.61-19.28-.52-1.08-1.06-2.16-1.61-3.25a64.94,64.94,0,0,1-4.67-10.89,69.39,69.39,0,0,1-1.72-8.61,67.4,67.4,0,0,0-1.72-8.55,33.51,33.51,0,0,0-13.19-17.91A102.47,102.47,0,0,1,1467.93,273c-4.13-4.51-6.56-8.86-7.42-13.28-.07-.37-.13-.74-.2-1.12-.39-2.22-.79-4.52-2.43-5.35-1.41-.72-3.24,0-4.32,1.11-3.75,3.79-3.44,9.95-2,14.07a34.58,34.58,0,0,0,4.29,8s3,4.42,1.52,6.3c-.59.77-1.59.93-3,.46-.23-.08-24.37-8-36.4-4a1,1,0,0,1-1.13-.32c-2.22-2.7-6.1-7.23-7.09-7.94s-1.86-2.51-2.67-4.35a14.09,14.09,0,0,0-2.22-4c-4.13-3.95-10.76-5.36-17.29-3.68-1.75.45-3.8,1.56-3.68,4.3a1,1,0,0,1-1.07,1.08Z" transform="translate(-152.78 -78.91)"/>
      </g>
      <g>
        <path class="cls-4" d="M1683.06,242.61c-1,4.87-6.68,10.06-9.85,13.62-4.2,4.72-8.63,9.27-12.21,14.49-8.72,12.7-13.41,30.32-13.1,45.69.23,10.94,3.86,21.89,13.17,28.37,1.77,1.23,3.67,2.46,5.51,3.5a41.39,41.39,0,0,1-4.31-21.09s11.53,14.52,38.87,6.41l8.11,6.83s15.94-12,6.69-61.08c0,0,27.7,17.28,27.49,56.21,0-2.35,2-5.89,2.56-8.32a64.43,64.43,0,0,0,1.44-13.5,51.23,51.23,0,0,0-6.55-25.8c-6.09-10.48-14.8-18.69-19.74-30-5.42-12.37-6.06-28.41-.41-41l-.58-14.13L1692,199Z" transform="translate(-152.78 -78.91)"/>
        <path class="cls-4" d="M1666.58,349.32a1,1,0,0,1-.51-.13c-1.7-1-3.58-2.16-5.59-3.56-8.51-5.93-13.35-16.3-13.62-29.2-.33-16.15,4.76-33.89,13.28-46.3a112.71,112.71,0,0,1,9.65-11.66c.89-1,1.77-2,2.64-2.93.59-.66,1.27-1.38,2-2.14,3.06-3.26,6.88-7.31,7.63-11h0c.07-.32,8.94-43.64,8.94-43.64a1.06,1.06,0,0,1,1.16-.82l28.15,3.89a1,1,0,0,1,.89,1l.59,14.13a1.27,1.27,0,0,1-.09.47c-5.29,11.76-5.12,27.53.41,40.16,2.84,6.47,7.05,12.06,11.13,17.47a127.12,127.12,0,0,1,8.56,12.37,52.45,52.45,0,0,1,6.69,26.33,66.62,66.62,0,0,1-1.46,13.72,24.6,24.6,0,0,1-1.21,3.56,15.35,15.35,0,0,0-1.34,4.55h0a1,1,0,0,1-2.07,0h0c.11-19.78-7.23-33.76-13.4-42a62.23,62.23,0,0,0-11.57-11.87c8.27,47.09-6.89,59.07-7.55,59.57a1,1,0,0,1-1.29,0l-7.69-6.47c-21.67,6.25-33.49-1.4-37.67-5.12a40.27,40.27,0,0,0,4.29,18.19,1,1,0,0,1-.21,1.22A1.09,1.09,0,0,1,1666.58,349.32Zm17.49-106.49c-.87,4.26-4.91,8.55-8.15,12-.7.75-1.36,1.45-1.94,2.1l-2.65,2.94a112.17,112.17,0,0,0-9.48,11.44c-8.28,12.07-13.23,29.35-12.91,45.09.25,12.22,4.77,22,12.73,27.54.89.62,1.76,1.21,2.6,1.74a41.75,41.75,0,0,1-3-18.55,1,1,0,0,1,.73-.92,1,1,0,0,1,1.12.35c.11.13,11.49,13.85,37.76,6.05a1.09,1.09,0,0,1,1,.2l7.4,6.24c2.73-2.84,13.66-17.29,5.71-59.49a1,1,0,0,1,.44-1.05,1,1,0,0,1,1.13,0c.27.17,25.19,16.12,27.76,50.81A16.06,16.06,0,0,0,1745,327a63.9,63.9,0,0,0,1.41-13.29,50.28,50.28,0,0,0-6.4-25.28,125.66,125.66,0,0,0-8.43-12.17c-4.15-5.51-8.44-11.2-11.37-17.89-5.72-13.06-5.92-29.37-.51-41.62l-.54-13-26.33-3.63C1691.48,206.66,1684.13,242.57,1684.07,242.83Z" transform="translate(-152.78 -78.91)"/>
      </g>
      <g>
        <path class="cls-5" d="M1496.83,387s-6.34,6.48-12.13,11.49a9.2,9.2,0,0,0-3.18,7V419.8l-2.15,8.57a18.45,18.45,0,0,0,1.68,13.27l13.22,24.4,24,2.12Z" transform="translate(-152.78 -78.91)"/>
        <path class="cls-5" d="M1518.23,469.2h-.09l-24-2.12a1.07,1.07,0,0,1-.82-.54l-13.22-24.4a19.43,19.43,0,0,1-1.77-14l2.11-8.45V405.45a10.25,10.25,0,0,1,3.54-7.77c5.7-4.92,12-11.36,12.07-11.43a1,1,0,0,1,1-.27,1,1,0,0,1,.74.73l21.39,81.19a1,1,0,0,1-1,1.3Zm-23.31-4.14,21.93,1.94-20.56-78c-2.16,2.16-6.7,6.61-10.91,10.25a8.17,8.17,0,0,0-2.83,6.2V419.8a1.07,1.07,0,0,1,0,.25l-2.14,8.57a17.39,17.39,0,0,0,1.58,12.53Z" transform="translate(-152.78 -78.91)"/>
      </g>
      <g>
        <path class="cls-4" d="M1613,122.32s-21.55-6.86-44.58,26.94c-10,14.69-14,37.64-14.93,54.83a97.89,97.89,0,0,0,6.62,41.73c5.36,13.42,12.8,26.19,15.45,40.54,1.4,7.54,1.3,15.68-2.31,22.45.88-1.66,23,.05,25.5.05h17.48Z" transform="translate(-152.78 -78.91)"/>
        <path class="cls-4" d="M1616.24,309.9h-17.48c-.57,0-2.11-.09-4.17-.2-5.14-.28-18.68-1-20.56-.2a1,1,0,0,1-1.69-1.18h0c3.08-5.76,3.82-13.08,2.21-21.77-1.83-9.91-6.06-19.25-10.16-28.29-1.78-3.93-3.62-8-5.24-12a99,99,0,0,1-6.69-42.18c.57-10.8,3.17-37.82,15.12-55.35,23.19-34.05,44.83-27.64,45.74-27.35a1,1,0,0,1,.73,1l3.23,186.54a1,1,0,0,1-1,1.06Zm-42.27-.37Zm5.45-2.48c3.31,0,8.16.18,15.28.58,2,.11,3.51.19,4.06.19h16.43L1612,123.15c-3.85-.74-22.74-2.59-42.69,26.7-11.65,17.1-14.2,43.66-14.75,54.29a96.76,96.76,0,0,0,6.54,41.3c1.61,4,3.43,8.06,5.2,12,4.15,9.15,8.44,18.62,10.31,28.77,1.51,8.17,1,15.24-1.43,21.05A41.37,41.37,0,0,1,1579.42,307.05Z" transform="translate(-152.78 -78.91)"/>
      </g>
      <g>
        <path class="cls-6" d="M1728.34,250.3c2.84-3.77,6.43-13-1.22-32.17l-5.94-42a.92.92,0,0,0-.08-.27l-24.93-57.16,2.44-11.8c1.43-1.33,9.7-8.56,20.28-8.56,7.68,0,14.89,3.77,21.42,11.21.36.32,24.59,21.3,18.75,64.64-.25,1.36-6,34.41,7.11,55.39-5.08-4-13.84-11.8-14.83-20.52a1,1,0,0,0-1-.92h0a1,1,0,0,0-1,1C1749.25,209.55,1747.39,247.77,1728.34,250.3Z" transform="translate(-152.78 -78.91)"/>
        <path class="cls-6" d="M1718.89,97.33V99.4c7.37,0,14.32,3.66,20.64,10.87a2.29,2.29,0,0,0,.23.21c.24.21,24,20.89,18.28,63.52-.23,1.31-5.21,30.07,4.6,51.24-4.56-4.14-9.56-10-10.27-16.26a2.08,2.08,0,0,0-2.06-1.85h-.08a2.07,2.07,0,0,0-2,2c0,.36-1.69,34.49-17.7,39.63,2.49-4.9,4.19-14.29-2.39-30.89L1722.21,176a2.39,2.39,0,0,0-.15-.54l-24.8-56.87,2.3-11.14c1.87-1.69,9.61-8.07,19.33-8.07V97.33m0,0c-12.18,0-21.23,9.07-21.23,9.07l-2.57,12.44,25.06,57.47,6,42.09c7.64,19.11,3.89,28,1.36,31.35a1,1,0,0,0,.78,1.6h.13c20.22-2.57,21.92-42.13,21.92-42.13,1,8.95,9.62,16.87,15.29,21.19a1,1,0,0,0,.62.21,1,1,0,0,0,.83-1.54c-13-20.89-7-54.71-7-54.71,6-44.47-19-65.46-19-65.46-7.68-8.76-15.43-11.57-22.2-11.57Z" transform="translate(-152.78 -78.91)"/>
      </g>
      <g>
        <path class="cls-7" d="M1687.41,117.34c-1.06-3-2.66-5.85-2.91-9a6.86,6.86,0,0,1,1.74-5.45,6.13,6.13,0,0,1,4.62-1.62,9.92,9.92,0,0,1,4.7,1.65c5,3.16,6.44,8.39,6.61,13.84,0-1.32,4.42-3.15,5.35-3.45a11.34,11.34,0,0,1,14.92,10.84c0,2.75-1.43,5.82-4.11,6.43,3.46-.79,7.82-.14,10.29,2.62a6.86,6.86,0,0,1,1.64,3.59,8,8,0,0,1-1.56,6c-2.55,3.29-8.8,4.81-12.76,4.81l-19.68-5.48Z" transform="translate(-152.78 -78.91)"/>
        <path class="cls-8" d="M1715.94,148.57a1,1,0,0,1-.28,0L1696,143.06a1,1,0,0,1-.7-.64s-8.78-24.55-8.85-24.72h0c-.29-.81-.62-1.62-1-2.43a22.8,22.8,0,0,1-2-6.87,7.82,7.82,0,0,1,2-6.27,7.07,7.07,0,0,1,5.4-1.91,10.73,10.73,0,0,1,5.21,1.8c4,2.54,6.28,6.56,6.92,12.25a19.59,19.59,0,0,1,4.16-2,12.39,12.39,0,0,1,16.28,11.83,9,9,0,0,1-1.58,5.11,10.8,10.8,0,0,1,7.5,3.25,7.8,7.8,0,0,1,1.88,4.13,8.89,8.89,0,0,1-1.76,6.75C1726.58,147.16,1719.63,148.57,1715.94,148.57Zm-18.88-7.36,19,5.29c3.56,0,9.48-1.41,11.8-4.4a7,7,0,0,0,1.35-5.19,5.87,5.87,0,0,0-1.38-3c-2.27-2.53-6.3-3-9.29-2.3a1,1,0,0,1-.46-2c2.13-.48,3.3-3.15,3.3-5.41a10.29,10.29,0,0,0-13.57-9.85c-1.47.47-4.25,1.87-4.63,2.53a1,1,0,0,1-1,1,1,1,0,0,1-1.07-1h0c-.19-6.34-2.14-10.47-6.12-13a8.78,8.78,0,0,0-4.21-1.48,5.13,5.13,0,0,0-3.84,1.32,5.83,5.83,0,0,0-1.43,4.63,21,21,0,0,0,1.86,6.24c.35.84.69,1.68,1,2.52Z" transform="translate(-152.78 -78.91)"/>
      </g>
      <g>
        <path class="cls-4" d="M1669.59,111.3c.08.47,2.26.65,2.73.74a43.9,43.9,0,0,1,18.63,7.49c13.11,8.79,23.68,22,28.51,37.11a54.71,54.71,0,0,1,1.93,27c-6.21-6.66-12.85-12.95-19.3-19.39l-21.77-21.78-5.25-5.24Z" transform="translate(-152.78 -78.91)"/>
        <path class="cls-4" d="M1721.39,184.7a1.06,1.06,0,0,1-.76-.33c-4.31-4.63-8.92-9.16-13.38-13.54-2-1.94-3.94-3.88-5.89-5.83l-27-27a1.11,1.11,0,0,1-.28-.52c-4.24-20.07-5.22-24.68-5.44-25.8a1.17,1.17,0,0,1,0-.2,1.08,1.08,0,0,1,0-.4,1,1,0,0,1,.92-.81,1,1,0,0,1,.9.39,12,12,0,0,0,1.65.3l.46.07a44.71,44.71,0,0,1,19,7.65c13.66,9.15,24.2,22.88,28.93,37.65a55.66,55.66,0,0,1,2,27.54,1,1,0,0,1-.73.8A1,1,0,0,1,1721.39,184.7Zm-45.37-48,26.81,26.8c2,1.95,3.91,3.88,5.88,5.82,4,3.91,8.09,8,12,12.08a54,54,0,0,0-2.24-24.48c-4.58-14.33-14.83-27.66-28.1-36.56a48.21,48.21,0,0,0-11.76-5.83,48.85,48.85,0,0,0-6.47-1.5l-.36,0-.79-.11C1672.14,118.34,1675.52,134.34,1676,136.73Z" transform="translate(-152.78 -78.91)"/>
      </g>
      <path class="cls-9" d="M1683.06,242.61c16.56,3.84,31.7-7.86,32.88-26.47L1667.25,149v94.42Z" transform="translate(-152.78 -78.91)"/>
      <g>
        <path class="cls-4" d="M1605.27,147.2s24.09-12.17,62,1.8c0,0-12-24.56-39.22-23.51C1628,125.49,1606.21,126.53,1605.27,147.2Z" transform="translate(-152.78 -78.91)"/>
        <path class="cls-4" d="M1667.25,150a.92.92,0,0,1-.36-.07c-37-13.63-60.92-2-61.15-1.85a1,1,0,0,1-1-.05,1.06,1.06,0,0,1-.48-.92c1-21.36,23.52-22.68,23.75-22.7,27.59-1.09,40.08,23.84,40.2,24.09a1,1,0,0,1-.93,1.5Zm-35.56-8.84a102,102,0,0,1,33.24,5.88c-3.81-6-15.64-21.44-36.86-20.55-.82,0-19.7,1.18-21.63,19C1609.91,144.13,1618.69,141.2,1631.69,141.2Z" transform="translate(-152.78 -78.91)"/>
      </g>
      <g>
        <path class="cls-9" d="M1217.91,860.2c-4.22,13.83-8.28,35-8.28,35l-39.1,19.55V887.09c2.78-5.83,3.72-12.26,4.15-18.64.36-5.41,1-10.83,1.59-16.25l.26-2.59,18-14.79Z" transform="translate(-152.78 -78.91)"/>
        <path class="cls-9" d="M1170.53,915.75a1,1,0,0,1-.54-.16,1,1,0,0,1-.49-.88V887.09a1,1,0,0,1,.1-.45c2.91-6.11,3.69-13,4-18.25.25-3.74.67-7.53,1.06-11.19q.29-2.55.54-5.1l.26-2.6a1.08,1.08,0,0,1,.37-.7l18-14.79a1.06,1.06,0,0,1,1.43.1l23.35,25.39a1,1,0,0,1,.22,1c-4.16,13.62-8.21,34.65-8.25,34.86a1,1,0,0,1-.56.73L1171,915.64A1.12,1.12,0,0,1,1170.53,915.75Zm1-28.43V913l37.14-18.57c.64-3.25,4.27-21.47,8-34l-22.29-24.22-16.94,13.9-.21,2.16c-.17,1.71-.36,3.41-.54,5.12-.4,3.64-.81,7.41-1.06,11.1C1175.35,873.94,1174.55,881,1171.57,887.32Z" transform="translate(-152.78 -78.91)"/>
      </g>
      <g>
        <polygon class="cls-2" points="1088.99 467.95 1070.45 503.39 1068.42 525.96 1115.09 532.05 1129.06 494.38 1121.69 459 1088.99 467.95"/>
        <path class="cls-2" d="M1267.88,612h-.14l-46.67-6.08a1,1,0,0,1-.9-1.12l2-22.58a1,1,0,0,1,.11-.39l18.54-35.44a1.06,1.06,0,0,1,.65-.52l32.7-9a1,1,0,0,1,.81.12,1,1,0,0,1,.48.67l7.37,35.39a1,1,0,0,1,0,.57l-14,37.67A1,1,0,0,1,1267.88,612Zm-45.55-8,44.86,5.85,13.58-36.61-7.09-34-31.2,8.55-18.23,34.85Z" transform="translate(-152.78 -78.91)"/>
      </g>
      <g>
        <path class="cls-7" d="M1498.53,503.75l-34.4-42.3c-27.28-28.39-54.64-56.71-81.71-85.3-5.41-5.71-10.91-11.49-17.67-15.51s-15-6.12-22.59-3.86c-9.53,2.86-15.85,11.92-19.85,21-25,57.09-52.74,112.85-80.37,168.69l-.17.34a103,103,0,0,0,40,26.35c2.46.92,15.52-16.41,17.36-18.47q10.66-11.93,20.43-24.59,11.55-15,21.79-30.91c1.73-2.68,16.2-29.61,17.71-29.09,1,.33,1.55,4.64,1.82,5.57a223,223,0,0,0,31.56,66.08,2.57,2.57,0,0,0,3.84,1.05C1430.22,529.36,1464.44,516.75,1498.53,503.75Z" transform="translate(-152.78 -78.91)"/>
        <path class="cls-7" d="M1282,574.27a1.4,1.4,0,0,1-.51-.09A104.16,104.16,0,0,1,1241,547.56a1,1,0,0,1-.17-1.17l3.42-6.9c26.09-52.73,53.07-107.26,77.1-162.09,5.11-11.65,12.19-19.12,20.51-21.61,7.07-2.13,15.61-.69,23.41,4,6.93,4.12,12.5,10,17.89,15.69,21.24,22.42,43,45.06,64.07,66.95l17.64,18.34,34.45,42.37a1,1,0,0,1-.44,1.62q-15.75,6-31.54,11.95c-23.21,8.75-47.21,17.81-70.65,27.13a3.53,3.53,0,0,1-5.07-1.42A223.2,223.2,0,0,1,1359.92,476c-.06-.23-.15-.66-.26-1.19a24.68,24.68,0,0,0-.77-3.19c-2.44,3-9.83,16.17-13.15,22.08-1.75,3.12-3,5.38-3.48,6.1-6.79,10.57-14.14,21-21.84,31-6.5,8.43-13.39,16.72-20.47,24.64-.36.4-1.16,1.4-2.22,2.73C1288.23,570,1284.13,574.27,1282,574.27ZM1243,546.67a102.27,102.27,0,0,0,39.14,25.56c1.9-.31,11-11.65,13.95-15.38,1.1-1.37,1.92-2.4,2.29-2.81,7-7.88,13.9-16.13,20.38-24.53,7.66-9.93,15-20.31,21.74-30.84.43-.66,1.74-3,3.41-6,13-23.26,14.12-24,15.51-23.53,1.12.39,1.61,1.94,2.26,5.26.09.45.16.82.22,1a220.87,220.87,0,0,0,31.41,65.76,2.66,2.66,0,0,0,1,1,2.69,2.69,0,0,0,1.64-.32c23.45-9.33,47.46-18.38,70.68-27.14q15.11-5.7,30.19-11.44l-33.48-41.18-17.59-18.29c-21.06-21.89-42.83-44.53-64.08-67-5.29-5.58-10.76-11.36-17.44-15.33-7.3-4.34-15.23-5.71-21.76-3.76-9.74,2.93-15.81,12.74-19.2,20.47-24,54.87-51,109.42-77.14,162.17Z" transform="translate(-152.78 -78.91)"/>
      </g>
      <path class="cls-4" d="M1688.7,195s.33,14.94-.67,22.92a.37.37,0,0,0,.67.26c2.4-3.44,8.87-13.41,9.72-22.12Z" transform="translate(-152.78 -78.91)"/>
      <g>
        <path class="cls-7" d="M1170.53,887.09s9.48,15.6,39.1,8.07c0,0,2,17.69,5.36,27.68,2,6.13,3.5,13.68.24,19.67-3.58,6.58-11.11,8.16-18,8.81-14.23,1.35-28.62,1.31-42.7,4-10.45,2-23.1,5.38-29,15.12,0,0-30.93,5.5-40.61,3.35s-19.31-7.5-19.36-7.53c-8.82-4.9,2.15-12.34,6.45-14.7,8.21-4.51,16.44-9,24.94-13s17.3-6.64,25.52-11a153.43,153.43,0,0,0,27.07-18.45C1156.55,903.14,1167.4,896.06,1170.53,887.09Z" transform="translate(-152.78 -78.91)"/>
        <path class="cls-7" d="M1091.21,975.3a31.5,31.5,0,0,1-6.48-.53c-9.6-2.13-19.23-7.4-19.63-7.63-2.58-1.43-3.89-3.23-3.88-5.34,0-5.26,8.6-10.24,10.32-11.18,8.12-4.46,16.48-9,25-13,3.5-1.62,7.12-3.06,10.62-4.46a142.22,142.22,0,0,0,14.84-6.56,151.8,151.8,0,0,0,26.88-18.32c1.38-1.17,2.9-2.38,4.49-3.65,6.44-5.13,13.75-11,16.18-17.89a1,1,0,0,1,1.86-.2c.09.15,9.51,14.83,37.95,7.61a1,1,0,0,1,.85.15,1,1,0,0,1,.44.74c0,.17,2,17.69,5.31,27.46,2.89,8.68,3,15.38.17,20.5-3.82,7-11.65,8.67-18.8,9.35-4.84.45-9.77.76-14.54,1-9.25.57-18.82,1.15-28.06,2.9-10.86,2.06-22.71,5.41-28.3,14.64a1,1,0,0,1-.7.48C1124.68,971.62,1103.85,975.3,1091.21,975.3Zm79.6-86.13c-3.1,6.7-10,12.2-16.14,17.1-1.57,1.25-3.07,2.45-4.43,3.6A154.52,154.52,0,0,1,1123,928.44a145.59,145.59,0,0,1-15,6.66c-3.47,1.38-7.06,2.81-10.52,4.42-8.46,3.91-16.79,8.48-24.84,12.9-3.47,1.9-9.28,6-9.29,9.39,0,1.3.94,2.48,2.81,3.51.39.22,9.76,5.36,19.08,7.43,8.75,2,35.89-2.62,39.74-3.28,6.1-9.62,18.28-13.08,29.44-15.2,9.36-1.77,19-2.36,28.31-2.93,4.76-.29,9.67-.6,14.48-1.05,6.6-.63,13.81-2.1,17.17-8.28,2.49-4.58,2.38-10.74-.32-18.84-2.87-8.61-4.74-22.58-5.26-26.72C1184.85,902.16,1174.12,893,1170.81,889.17Z" transform="translate(-152.78 -78.91)"/>
      </g>
      <g>
        <path class="cls-7" d="M1171.57,655.93c.11.21-12.22,2.89-13.23,3a66.2,66.2,0,0,1-16.52-.32c-10.31-1.51-24-5.69-31.29-13.64,0,0-4.63-7.92,3.3-10.05s19.43-8.57,19.43-8.57l44.16-13.22s28.31-15.4,33.1-19.46,5.65-3.59,12.71-11.38c0,0,6.08,6.92,15.18,8.36l8.68,53.14Z" transform="translate(-152.78 -78.91)"/>
        <path class="cls-7" d="M1151.38,660.34a67.39,67.39,0,0,1-9.71-.71c-5.17-.75-22.76-4-31.9-14l-.14-.18c-.1-.17-2.45-4.26-1-7.74.77-1.87,2.43-3.16,5-3.84,7.72-2.07,19.08-8.4,19.19-8.46a1,1,0,0,1,.21-.09L1177,612.17c1.8-1,28.31-15.47,32.83-19.29,1.48-1.26,2.62-2.1,3.62-2.85,2.32-1.73,4.15-3.1,9-8.43a.85.85,0,0,1,.77-.34,1,1,0,0,1,.77.35c.06.06,6,6.65,14.57,8a1,1,0,0,1,.86.86l8.67,53.13a1,1,0,0,1-.18.77,1,1,0,0,1-.68.42L1171.73,657v-.07c-2.93,1.19-13.15,3.07-13.27,3.08A66.55,66.55,0,0,1,1151.38,660.34Zm-40-16c8.7,9.4,25.61,12.5,30.59,13.23a64.22,64.22,0,0,0,16.26.31c.88-.09,11.47-2.4,12.79-2.85a1.34,1.34,0,0,1,.38-.14l74.5-12-8.39-51.38a29.14,29.14,0,0,1-14.26-7.74,52.09,52.09,0,0,1-8.54,7.89c-1,.76-2.09,1.55-3.52,2.76-4.82,4.08-32.12,18.95-33.27,19.58l-.2.09-44.06,13.18c-1.22.69-11.9,6.55-19.56,8.61-1.86.5-3.06,1.38-3.57,2.62C1109.58,640.83,1111.08,643.8,1111.38,644.35Z" transform="translate(-152.78 -78.91)"/>
      </g>
      <g>
        <path class="cls-10" d="M1223.26,645.67c-8.45-1.17-24.71-.13-32.15,2.53-3,1.08-3-3.72-3.29-5.49-1.42-8.3-3.39-16.58-7-24.17-1.59-3.32-3.72-6.7-7.11-8.14-3.11-1.32-6.67-.76-10-.13a78.39,78.39,0,0,0-16.54,4.55,35.28,35.28,0,0,0-7.33,4.19,23.29,23.29,0,0,0-4.94,4.34c-.81,1.09-1.21,1.58.07,2,1.49.49,3.7-.14,5.27-.07a16.87,16.87,0,0,1,5.75,1.46c11.46,4.81,22.25,15.44,27,26.91a1.65,1.65,0,0,1-1.46,2.35c-2.43,1.07-5.43,1.31-8,2a79.21,79.21,0,0,1-14.4,1.8,42.25,42.25,0,0,1-14.76-1.46,88,88,0,0,1-16.44-6.46,73.84,73.84,0,0,1-7.61-5.24c-1.21,1.79-.86,5.72-.61,7.82a15.43,15.43,0,0,0,3,7.76c5.29,6.71,19.62,9.92,27.49,10.78,14,1.53,28.18-2.2,40.63-8.34,4.54-2.24,8.94-4.8,13.74-6.38,9.44-3.1,19.25.73,28.88-.94a5.9,5.9,0,0,0-.27-11.62Z" transform="translate(-152.78 -78.91)"/>
        <path class="cls-10" d="M1146.66,674.33a59.33,59.33,0,0,1-6.49-.35c-2.18-.24-21.42-2.58-28.2-11.17a16.5,16.5,0,0,1-3.26-8.28c-.51-4.2-.25-7,.78-8.52a1.05,1.05,0,0,1,.68-.44,1,1,0,0,1,.78.18c.77.54,1.51,1.09,2.25,1.64a41.19,41.19,0,0,0,5.25,3.53,85.85,85.85,0,0,0,16.25,6.38,41.11,41.11,0,0,0,14.4,1.42,79.71,79.71,0,0,0,14.2-1.77c.9-.23,1.85-.41,2.82-.59a23,23,0,0,0,5-1.31,1.11,1.11,0,0,1,.26-.07,1,1,0,0,0,.7-.39.62.62,0,0,0,0-.54c-4.61-11.06-15.26-21.65-26.48-26.35a15.62,15.62,0,0,0-5.39-1.38,13.82,13.82,0,0,0-1.83.11,9.09,9.09,0,0,1-3.72-.09,2.12,2.12,0,0,1-1.47-1.22c-.27-.84.24-1.52.83-2.31a20.7,20.7,0,0,1,4.55-4.15l.66-.49a37.05,37.05,0,0,1,7.53-4.3,78.88,78.88,0,0,1,16.77-4.62c3.68-.7,7.27-1.22,10.58.2,3.89,1.65,6.13,5.48,7.64,8.64,4,8.45,5.93,17.5,7.12,24.45.05.28.09.64.14,1,.12,1.13.36,3.24,1.06,3.67.06,0,.24.15.73,0,7.91-2.84,24.32-3.74,32.63-2.59h0a6.93,6.93,0,0,1,5.92,6.86,6.84,6.84,0,0,1-5.61,6.81c-4.4.76-8.83.41-13.12.08-5.42-.43-10.55-.84-15.61.83a71.25,71.25,0,0,0-10.24,4.61c-1.12.57-2.24,1.15-3.37,1.71C1172.88,669.73,1160.42,674.33,1146.66,674.33Zm-35.86-26.14a17.31,17.31,0,0,0,0,6.1,14.46,14.46,0,0,0,2.83,7.24c5.08,6.44,19.23,9.56,26.79,10.39,15.8,1.73,30.5-3.53,40.06-8.24,1.12-.55,2.23-1.13,3.34-1.7a73.59,73.59,0,0,1,10.54-4.73c5.46-1.8,11-1.36,16.43-.93,4.16.32,8.45.66,12.59-.05a4.86,4.86,0,0,0-.23-9.57h0c-8-1.11-24.22-.19-31.65,2.48A2.8,2.8,0,0,1,1189,649c-1.56-1-1.83-3.42-2-5.21,0-.35-.07-.67-.12-.93-1.72-10.11-3.86-17.48-6.94-23.89-1.35-2.83-3.33-6.25-6.58-7.64-2.77-1.17-6-.7-9.39-.06-5.36,1-11.05,2.2-16.32,4.48a34.64,34.64,0,0,0-7.11,4.07l-.67.49a19.07,19.07,0,0,0-4.07,3.64l-.32.43a8.37,8.37,0,0,0,2.73,0,16,16,0,0,1,2.15-.13,18,18,0,0,1,6.1,1.54c11.88,5,22.71,15.76,27.6,27.47a2.65,2.65,0,0,1-.07,2.35,2.93,2.93,0,0,1-2.05,1.4,25.48,25.48,0,0,1-5.36,1.41c-.91.17-1.82.33-2.68.55a81.48,81.48,0,0,1-14.59,1.83,43.27,43.27,0,0,1-15.11-1.5,88.08,88.08,0,0,1-16.64-6.54,43.33,43.33,0,0,1-5.51-3.69Z" transform="translate(-152.78 -78.91)"/>
      </g>
      <g>
        <path class="cls-8" d="M1611.06,541.75c-4.34,13.72-9.35,27.4-12.82,41.3-4.23,17-12.42,33.43-25.84,45-20.37,17.48-44.27,15.36-69.14,15.36h-58.61c-46.39,0-92.8.52-139.18-.42-7.07-.14-16.69-1-22,4.62-3.09,3.28-4,8-4.55,12.47-3.89,31.31,2.93,63.17-9.1,93.2-11,27.33-28.21,51.51-40.55,78.17a166.09,166.09,0,0,0-10.72,29.54c-14.25-.51-30.31-2.53-42.06-11.33,0,0,15.16-95.18,24.43-129.71,5.91-22,11.46-44.15,17-66.27q4.17-16.59,8.38-33.17c2.32-9.08,3.09-19.33,9.24-26.82,7.84-9.55,20.66-13.07,32.57-16.4,40.39-11.28,80-25.87,119.76-39.07l101.91-35.57s14.41-4,12.89-17.38l75.9-10.83Z" transform="translate(-152.78 -78.91)"/>
        <path class="cls-8" d="M1218.59,862h0c-13.33-.48-30.23-2.23-42.65-11.54a1,1,0,0,1-.4-1c.15-1,15.27-95.62,24.44-129.81,5.94-22.14,11.58-44.56,17-66.26l.42-1.67q4-15.75,8-31.49c.53-2.09,1-4.28,1.44-6.41,1.53-7.31,3.12-14.86,8-20.82,8-9.73,20.62-13.25,32.82-16.66l.28-.08c28.65-8,57.35-17.83,85.11-27.33,11.34-3.88,23.06-7.9,34.61-11.73l101.89-35.55c.62-.18,13.6-4,12.2-16.29a1,1,0,0,1,.88-1.15l75.9-10.83a1,1,0,0,1,1.08.58L1612,541.3a1,1,0,0,1,.06.77c-1.3,4.09-2.65,8.18-4,12.28-3.13,9.45-6.37,19.23-8.79,28.95-3.34,13.37-10.58,32.11-26.17,45.49-18.68,16-40,15.83-62.55,15.65-2.42,0-4.84,0-7.27,0h-58.61q-18.29,0-36.57.07c-33.64.11-68.42.21-102.63-.49l-2-.05c-6.57-.18-14.75-.42-19.23,4.34-2.83,3-3.73,7.49-4.27,11.88-1.4,11.28-1.4,22.83-1.41,34,0,19.73,0,40.13-7.75,59.46-6.18,15.42-14.48,30-22.5,44.19-6.23,11-12.69,22.38-18.08,34a163.31,163.31,0,0,0-10.65,29.35A1,1,0,0,1,1218.59,862Zm-40.93-12.83c11.66,8.46,27.43,10.22,40.13,10.73A167,167,0,0,1,1228.36,831c5.43-11.72,11.91-23.14,18.17-34.19,8-14.08,16.24-28.64,22.37-43.93,7.6-19,7.6-39.16,7.61-58.69,0-11.23,0-22.85,1.42-34.25.59-4.75,1.58-9.61,4.82-13,5.12-5.44,13.81-5.19,20.8-5l1.94,0c34.18.69,69,.59,102.59.49q18.29-.06,36.57-.07h58.61c2.44,0,4.87,0,7.29,0,22.15.18,43.09.36,61.18-15.16,15.17-13,22.24-31.34,25.5-44.41,2.45-9.8,5.7-19.61,8.84-29.11,1.31-4,2.62-7.9,3.88-11.86L1578,475.52l-74.17,10.59c.79,13.28-13.58,17.45-13.73,17.5l-101.84,35.53c-11.56,3.84-23.28,7.85-34.61,11.73-27.78,9.51-56.52,19.35-85.22,27.37l-.28.08c-11.89,3.32-24.19,6.76-31.77,16-4.57,5.56-6.1,12.87-7.58,19.93-.45,2.14-.91,4.36-1.46,6.49q-4,15.74-7.95,31.49l-.42,1.67c-5.45,21.7-11.09,44.13-17,66.29C1193.21,752.8,1179,840.85,1177.66,849.15Z" transform="translate(-152.78 -78.91)"/>
      </g>
      <g>
        <path class="cls-11" d="M1615.21,297c5.46,3.68,21,11.62,48.5,7.33l48.18,33.09c8.45,5.8,17.09,11.18,25.23,17.44a10.38,10.38,0,0,1,3.3,3.49,10.63,10.63,0,0,1,.73,4.35c1.07,42.45-1.42,85,1.44,127.37.91,13.49,2.31,27.47-1.07,40.74-1.6,6.29-4.68,12-6.75,18.13-2.67,7.89-5.7,15.7-8.72,23.46-1.7,4.35-2.84,9.21-1.42,13.65a3,3,0,0,1,.24,1.4,2.64,2.64,0,0,1-1,1.37c-10,8.66-20.12,17.45-32.87,21.82-10.34,4.75-29,9.85-37.57-.46-2.32-2.8-3.74-6.21-5.08-9.59-6-15.25-9.37-28.21-10.19-44.6,0-.15,3.08-3.49,3.63-3.54-1.61-5.51-7.84-18-2.46-22.95l-3.27-7.53-24.49,20.78-76-51.32a17,17,0,0,0-3-1.67c-7.07-2.83-16.57-2.77-24-3.16-2-.11-4.13-.21-5.79-1.34a10.09,10.09,0,0,1-2.92-3.69c-3.27-6-6.78-12.73-5.1-19.59q10.43-42.46,20.86-84.94a155,155,0,0,1,4.57-16.12c1.88-5.16,5.39-9.65,7-14.84,2.47-8.08,2.91-17,7.74-24.23,3.12-4.65,7.87-8,13-10.38,9.56-4.41,20.17-5.34,30.56-5.72,5.31-.19,10.62-.2,15.92-.45,2.45-.11,11.55,1,13.34,0a11.53,11.53,0,0,0,5.2-7.23A1.54,1.54,0,0,1,1615.21,297Z" transform="translate(-152.78 -78.91)"/>
        <path class="cls-11" d="M1668.43,617.23c-6,0-11.82-1.6-15.82-6.43-2.37-2.85-3.83-6.3-5.25-9.86-6.51-16.43-9.48-29.44-10.26-44.94,0-.69,2.06-2.86,3.47-4-.29-.9-.67-1.93-1.08-3.06-2.33-6.42-5.5-15.12-1.41-19.74l-2.44-5.61-23.41,19.87a1,1,0,0,1-1.26.07l-76-51.32a16.61,16.61,0,0,0-2.84-1.57c-5.84-2.33-13.44-2.65-20.14-2.93l-3.5-.15c-2.08-.11-4.42-.24-6.31-1.52a10.94,10.94,0,0,1-3.25-4.06c-3.13-5.75-7-12.9-5.2-20.33l20.92-85.17a153,153,0,0,1,4.54-16,53.1,53.1,0,0,1,3.39-7,43.71,43.71,0,0,0,3.58-7.74c.77-2.53,1.36-5.22,1.93-7.81,1.25-5.71,2.54-11.62,5.94-16.69,2.94-4.39,7.44-8,13.39-10.75,9.7-4.48,20.61-5.44,30.95-5.82,2.29-.08,4.58-.13,6.88-.17,3-.07,6-.13,9-.27.85-.05,2.38,0,4.16.17,2.71.17,7.77.49,8.7,0a10.56,10.56,0,0,0,4.7-6.52,2.64,2.64,0,0,1,1.57-2,2.54,2.54,0,0,1,2.4.24h0c5.29,3.57,20.55,11.41,47.76,7.16a1,1,0,0,1,.74.17l48.19,33.09q3.94,2.7,7.92,5.33c5.76,3.84,11.72,7.82,17.35,12.15a11.12,11.12,0,0,1,3.6,3.86,11.56,11.56,0,0,1,.84,4.77c.42,17,.28,34.23.14,50.92-.21,25.07-.42,51,1.29,76.41l.25,3.57c.87,12.4,1.78,25.23-1.34,37.49a79.85,79.85,0,0,1-3.94,11c-1,2.36-2,4.81-2.84,7.26-2.56,7.6-5.36,14.83-8.74,23.51-2,5.25-2.5,9.49-1.39,13a3.61,3.61,0,0,1,.26,1.91,3.57,3.57,0,0,1-1.35,2l-.31.26c-9.88,8.54-20.09,17.36-32.9,21.76C1688.5,612.88,1678.29,617.23,1668.43,617.23Zm-29.24-61c.8,15.08,3.73,27.83,10.1,43.9,1.4,3.54,2.74,6.68,4.92,9.31,7.47,9,24.25,5.74,36.34.18,12.52-4.3,22.58-13,32.31-21.4l.32-.27c.23-.2.62-.53.67-.77a2.11,2.11,0,0,0-.17-.78c-1.3-4.05-.83-8.74,1.4-14.45,3.37-8.65,6.16-15.87,8.71-23.43.85-2.51,1.88-5,2.88-7.39a78.18,78.18,0,0,0,3.85-10.66c3-11.94,2.14-24.6,1.28-36.84l-.25-3.57c-1.72-25.49-1.5-51.46-1.29-76.56.13-16.68.28-33.92-.15-50.86a9.62,9.62,0,0,0-.63-3.92,9.44,9.44,0,0,0-3-3.12c-5.58-4.29-11.51-8.24-17.24-12.06-2.66-1.77-5.31-3.54-8-5.35l-47.84-32.85c-27.68,4.22-43.36-3.87-48.83-7.56h0a.47.47,0,0,0-.44,0,.58.58,0,0,0-.34.43,12.47,12.47,0,0,1-5.7,7.94c-1.36.79-5,.63-9.86.32-1.65-.11-3.19-.2-3.94-.17-3,.14-6.06.21-9.09.27-2.28.05-4.56.1-6.84.18-11.7.42-21.31,1.54-30.16,5.62-5.6,2.58-9.82,5.95-12.54,10-3.18,4.75-4.43,10.46-5.64,16-.57,2.64-1.17,5.37-2,8a45,45,0,0,1-3.74,8.12,52.5,52.5,0,0,0-3.26,6.76,155.37,155.37,0,0,0-4.48,15.79l-.05.22-20.86,84.95c-1.63,6.64,2,13.41,5,18.84a9.19,9.19,0,0,0,2.59,3.33c1.42,1,3.36,1.06,5.24,1.16l3.5.16c6.86.28,14.65.61,20.82,3.08a18,18,0,0,1,3.22,1.77l75.39,50.88,23.88-20.27a1,1,0,0,1,1.63.38l3.28,7.53a1.05,1.05,0,0,1-.26,1.18c-3.85,3.52-.67,12.26,1.43,18,.54,1.47,1,2.79,1.32,3.85a1,1,0,0,1-.13.87,1.06,1.06,0,0,1-.55.41A25.86,25.86,0,0,0,1639.19,556.27Z" transform="translate(-152.78 -78.91)"/>
      </g>
      <g>
        <path class="cls-10" d="M1231.06,977.11s-11.43-27.36-81.56-24.37l3.51,26.91,65.58,12.66S1232.28,988.8,1231.06,977.11Z" transform="translate(-152.78 -78.91)"/>
        <path class="cls-10" d="M1218.59,993.35l-.19,0-65.59-12.66a1.05,1.05,0,0,1-.83-.89l-3.51-26.91a1,1,0,0,1,1-1.17c70-3,82.09,23.86,82.56,25a1,1,0,0,1,.08.29c1.3,12.44-13.09,16.28-13.24,16.32A1.09,1.09,0,0,1,1218.59,993.35Zm-64.65-14.58,64.61,12.48c1.73-.5,12.4-4,11.49-13.86-1-2-14.37-26.16-79.37-23.66Z" transform="translate(-152.78 -78.91)"/>
      </g>
      <g>
        <path class="cls-9" d="M1669,156.85a13.33,13.33,0,0,0-9.41-10c-7.5-2.13-14.85-4.18-23-4.69-16.23-1-43,3.87-49,22.06a35.71,35.71,0,0,0-1.37,9.05c-.74,12.32.77,24.15,1.14,36.41.24,7.81-3,13.73-5.46,20.84-2.7,8-1.51,17,2,24.55,3.65,7.9,9.57,14.39,16,20.13,5.92,5.28,11.52,9.84,18.35,11.59a23.8,23.8,0,0,0,18.48-2.56s31.33-14,43.68-35.81a33.87,33.87,0,0,0,3.42-24Z" transform="translate(-152.78 -78.91)"/>
        <path class="cls-9" d="M1624.4,288.71a21.27,21.27,0,0,1-6.46-.91c-7.07-1.8-12.88-6.61-18.7-11.8-7.9-7-13.07-13.54-16.26-20.46-3.88-8.42-4.61-17.65-2-25.32.58-1.7,1.21-3.34,1.83-4.95,1.93-5,3.75-9.78,3.57-15.52-.12-4.14-.38-8.29-.63-12.3a198.25,198.25,0,0,1-.51-24.22,36.68,36.68,0,0,1,1.43-9.31c6.11-18.62,33.24-23.82,50-22.76,8.34.52,15.88,2.66,23.17,4.72A14.38,14.38,0,0,1,1670,156.62l14.88,67.64a34.76,34.76,0,0,1-3.53,24.7c-12.38,21.86-42.86,35.67-44.16,36.24A25,25,0,0,1,1624.4,288.71Zm8-145.61c-16.09,0-38.46,5.41-43.73,21.47a34.5,34.5,0,0,0-1.33,8.79,196.33,196.33,0,0,0,.51,24c.25,4,.51,8.2.64,12.36.19,6.16-1.71,11.1-3.72,16.33-.6,1.59-1.22,3.2-1.79,4.88-2.44,7.17-1.74,15.84,1.92,23.78,3.07,6.65,8.08,12.94,15.76,19.79,5.62,5,11.22,9.64,17.91,11.36a23.06,23.06,0,0,0,17.71-2.46c.41-.19,31.26-14.17,43.3-35.42a32.73,32.73,0,0,0,3.3-23.23L1668,157.07a12.28,12.28,0,0,0-8.69-9.19c-7.18-2-14.61-4.14-22.73-4.65C1635.21,143.15,1633.81,143.1,1632.36,143.1Z" transform="translate(-152.78 -78.91)"/>
      </g>
      <g>
        <path class="cls-12" d="M1231.43,977.6c-.24,2-4.77,12.54-74.64-3.62,0,0-8-33.52-24.64-46.2-7-5.28-14.2-3.54-21.66-.85a96.07,96.07,0,0,0-16.82,8c-3.81,2.3-9.44,5.2-11,9.74.54-1.57,11,1.52,12.27,1.9a71.12,71.12,0,0,1,12.78,5,37.17,37.17,0,0,1,17.34,18.56c-4,.72-8.12,1.33-12.2,1.89-3.68.51-7.37,1-11.07,1.32s-7.58,1.26-11.32,1.18a34.37,34.37,0,0,1-7.7-1.36l-9.81-2.5c-.77-.2-4-1.54-4.69-1.15s-.66,2.43-.69,3.17c-.12,3,.31,6.34,2.43,8.54,5.11,5.3,14.56,6.94,21.52,7.34,12,.69,24.06-1,36.13-.52,8.6.34,17.44.6,25.9,2.29l35.5,7.38s51.79,12.44,42.45-20.21A.61.61,0,0,0,1231.43,977.6Z" transform="translate(-152.78 -78.91)"/>
        <path class="cls-12" d="M1208.91,1001.09a95.84,95.84,0,0,1-20.1-2.37l-35.47-7.37c-7.92-1.59-16.28-1.91-24.37-2.22l-1.36,0c-5.7-.22-11.5,0-17.11.3a182.88,182.88,0,0,1-19,.21c-7.16-.41-16.83-2.07-22.2-7.65-2-2-2.9-5.18-2.73-9.31.09-2.11.31-3.46,1.19-4s2-.18,4.59.73c.39.14.72.25.9.3l9.8,2.5a34.45,34.45,0,0,0,7.47,1.32,43.66,43.66,0,0,0,7.18-.65c1.35-.2,2.69-.4,4-.52,3.38-.33,7-.76,11-1.32s7.62-1.1,10.86-1.66a36.32,36.32,0,0,0-16.35-16.84,68.61,68.61,0,0,0-12.58-4.9c-6.14-1.83-10.17-2.51-11.15-2.27a1,1,0,0,1-1.81-1l0-.12c1.56-4.36,6.33-7.17,10.17-9.43l1.24-.74a96.66,96.66,0,0,1,17-8.1c7.31-2.64,15.09-4.74,22.64,1,15.72,11.95,23.65,41.34,24.87,46.16,52.45,12.08,67.27,9,71.43,6.09,1.1-.77,1.29-1.46,1.32-1.72a1,1,0,0,1,.17-.45,1.06,1.06,0,0,1,1-.52,1,1,0,0,1,.88.7c2.18,7.61,1.31,13.52-2.59,17.59C1225.2,999.7,1216.86,1001.09,1208.91,1001.09Zm-85.8-14.17c1.53,0,3.05,0,4.58.09l1.36,0c8.17.31,16.61.63,24.71,2.25l35.5,7.39c.32.07,29.35,6.89,39.14-3.34,2.94-3.07,3.84-7.48,2.7-13.14a7.56,7.56,0,0,1-.83.68c-5.44,3.82-22.65,5.9-73.71-5.91a1,1,0,0,1-.78-.77c-.08-.33-8.06-33.31-24.26-45.62-6.72-5.1-13.9-3.14-20.68-.69a94.59,94.59,0,0,0-16.63,7.93l-1.26.75c-3,1.75-6.53,3.85-8.39,6.63,1.89.1,5.12.73,10.67,2.38a71.33,71.33,0,0,1,13,5A38.24,38.24,0,0,1,1126,969.73a1,1,0,0,1-.78,1.42c-3.63.64-7.52,1.25-12.23,1.9-4.07.56-7.71,1-11.12,1.32-1.3.13-2.6.32-3.92.51a46,46,0,0,1-7.52.68,36.07,36.07,0,0,1-7.94-1.39l-9.8-2.5c-.22-.06-.6-.19-1.08-.35a20.39,20.39,0,0,0-2.82-.84c0,.21-.13.8-.19,2.14-.15,3.64.57,6.26,2.14,7.88,5.17,5.37,15.27,6.7,20.83,7a184.37,184.37,0,0,0,18.82-.21C1114.57,987.12,1118.84,986.92,1123.11,986.92ZM1083.64,945h0Z" transform="translate(-152.78 -78.91)"/>
      </g>
      <path class="cls-13" d="M1513.21,357.49h49.16a14.9,14.9,0,0,1,14.81,13.17c3.16,27.42,5.14,88-39.37,87.16,0,0-51.89,9-39.38-87.43A14.89,14.89,0,0,1,1513.21,357.49Z" transform="translate(-152.78 -78.91)"/>
      <g>
        <path class="cls-9" d="M1657.78,486.58a208.6,208.6,0,0,1-23.56-29.22c-6.41-9.45-11.76-19.55-17.25-29.54-2.85-5.21-5.78-10.29-8.74-15.44,0-8.21.64-16.71,0-24.87-.25-3.38-1.88-7.07-5.11-8.07a11.37,11.37,0,0,0-4.72-.08c-7.61.93-15.25,1.5-22.88,2.17-4.22-2.58-10.32-6.9-14.55-7.26-.21,0-.42,0-.62,0a6.18,6.18,0,0,0-3,.94,10.07,10.07,0,0,0-4.88,6.66,8.35,8.35,0,0,0,2.57,7.65c-3.69,5.1-5.4,10.88-2.66,17l3.57,4.73c-.32-.43-3.88,2.37-4.12,2.62a8.64,8.64,0,0,0-2,9.41c3.17,8.92,11.19,15.84,18.11,21.89,7.45,6.51,15.19,12.71,25.1,14.75l10.85,2.22s17,23.83,36.23,69.32a11,11,0,0,0,18.85,2.41q6.33-8.29,12.67-16.6c5.5-7.21,6.8-8.74-.14-17C1668.74,496.91,1660.84,489.67,1657.78,486.58Z" transform="translate(-152.78 -78.91)"/>
        <path class="cls-9" d="M1650.34,539.2a13.6,13.6,0,0,1-1.56-.09,11.93,11.93,0,0,1-9.58-7.26c-17.76-42-33.79-65.76-35.89-68.8-6.48-1.33-9.23-1.9-10.4-2.3l0,.16c-10.16-2.08-18.21-8.54-25.58-15l-.27-.24c-7-6.11-14.91-13-18.12-22.08a9.72,9.72,0,0,1,2.26-10.5,25,25,0,0,1,3.2-2.36l-2.74-3.63a.82.82,0,0,1-.12-.2c-2.5-5.58-1.74-11.4,2.26-17.31a9.4,9.4,0,0,1-2.24-7.95,11.09,11.09,0,0,1,5.38-7.36,7.06,7.06,0,0,1,3.46-1.09l.73,0c3.77.31,8.76,3.47,12.76,6l2,1.22,4.75-.41c5.83-.5,11.85-1,17.75-1.73a12.13,12.13,0,0,1,5.15.12c3.91,1.21,5.6,5.59,5.85,9,.4,5.46.26,11.12.12,16.6-.07,2.71-.14,5.4-.15,8.07l1.23,2.14c2.44,4.26,5,8.66,7.39,13.08l1.9,3.49c4.75,8.68,9.65,17.66,15.29,26a207.91,207.91,0,0,0,23.44,29.07c1,1,2.56,2.51,4.28,4.15,3.58,3.42,7.63,7.31,9.53,9.57,7.14,8.51,6.06,10.6.34,18.1l-12.84,16.81A11.85,11.85,0,0,1,1650.34,539.2Zm-57-80.32,10.83,2.22a1,1,0,0,1,.63.42c.17.24,17.28,24.44,36.34,69.52a9.95,9.95,0,0,0,17.07,2.18L1671,516.41c5.25-6.89,6.06-7.95-.28-15.5-1.82-2.18-6-6.19-9.38-9.41-1.73-1.66-3.29-3.16-4.31-4.19h0A209.36,209.36,0,0,1,1633.36,458c-5.69-8.4-10.62-17.42-15.39-26.15l-1.9-3.48c-2.42-4.4-4.94-8.8-7.37-13l-1.37-2.39a1,1,0,0,1-.13-.51c0-2.78.07-5.59.14-8.41.14-5.42.29-11-.11-16.39-.21-2.73-1.48-6.25-4.39-7.15a10.65,10.65,0,0,0-4.29,0c-5.93.73-12,1.24-17.83,1.74l-5.08.44a1.15,1.15,0,0,1-.63-.15l-2.27-1.42c-3.81-2.41-8.56-5.42-11.83-5.69a4.7,4.7,0,0,0-.52,0,5.05,5.05,0,0,0-2.44.8,9,9,0,0,0-4.39,6,7.35,7.35,0,0,0,2.24,6.69,1,1,0,0,1,.15,1.37c-4,5.55-4.85,10.74-2.6,15.87l3.48,4.61v0h0l0,0a1,1,0,0,1-.23,1.43,1.07,1.07,0,0,1-.72.2,23.63,23.63,0,0,0-3.29,2.33,7.62,7.62,0,0,0-1.77,8.32c3,8.55,10.74,15.28,17.53,21.21l.28.24c7.46,6.52,14.95,12.53,24.63,14.52Zm-38.12-47Z" transform="translate(-152.78 -78.91)"/>
      </g>
      <g>
        <path class="cls-11" d="M1639.28,529.46c-6.64,3,.85,17.44,2.46,22.95-.55.05-3.61,3.39-3.6,3.54.82,16.39,4.11,29.35,10.16,44.6,1.34,3.38,2.76,6.79,5.08,9.59,8.53,10.31,27.23,5.21,37.57.46,12.75-4.37,22.85-13.16,32.87-21.82a2.64,2.64,0,0,0,1-1.37,3,3,0,0,0-.24-1.4,15.91,15.91,0,0,1-.33-7.67s-7.34-4.87-7.34-11.33-1.67-36.81-5.5-43.75c-2.29-4.15-5.62-10.9-7.92-15.62a7.68,7.68,0,0,0-8.07-4.21,21.13,21.13,0,0,1-7.44,0c-5.26-1.19-12-5.74-12-5.74s-5-6-10.52,3.11C1665.53,500.79,1644.54,527.08,1639.28,529.46Z" transform="translate(-152.78 -78.91)"/>
        <path class="cls-11" d="M1668.4,617.23c-6,0-11.82-1.6-15.82-6.43-2.37-2.86-3.83-6.3-5.25-9.86-6.48-16.36-9.45-29.38-10.23-44.94,0-.72,2-2.88,3.43-4-.32-1-.78-2.16-1.29-3.5-2.62-6.85-6.58-17.21-.38-20,4.13-1.87,20.07-21.12,25.86-28.37,2-3.36,4.36-5.22,6.87-5.42a6.52,6.52,0,0,1,5.14,2.16c.85.57,6.84,4.46,11.5,5.52a20,20,0,0,0,7.06,0,8.74,8.74,0,0,1,9.16,4.78c3.44,7.1,6.1,12.34,7.89,15.58,4.08,7.39,5.63,39.2,5.63,44.26,0,5.81,6.8,10.41,6.87,10.46a1,1,0,0,1,.45,1,14.68,14.68,0,0,0,.3,7.17,3.72,3.72,0,0,1,.27,1.91,3.63,3.63,0,0,1-1.36,2l-.31.27c-9.88,8.53-20.1,17.35-32.9,21.75C1688.47,612.88,1678.26,617.23,1668.4,617.23Zm-29.21-61c.8,15.15,3.72,27.9,10.07,43.91a33.84,33.84,0,0,0,4.92,9.31c7.47,9,24.24,5.74,36.34.18,12.52-4.3,22.58-13,32.31-21.39l.32-.28c.25-.21.62-.53.67-.78a2.11,2.11,0,0,0-.17-.77,16.81,16.81,0,0,1-.51-7.63c-1.79-1.33-7.25-5.88-7.25-11.79,0-6.64-1.72-36.65-5.37-43.26-1.8-3.27-4.48-8.54-7.94-15.67a6.62,6.62,0,0,0-7-3.63,21.63,21.63,0,0,1-7.83,0c-5.39-1.22-12-5.7-12.3-5.89a1.3,1.3,0,0,1-.22-.19,4.56,4.56,0,0,0-3.52-1.54c-1.77.14-3.61,1.71-5.31,4.52-2.24,2.82-21.38,26.66-26.71,29.08l-.43-.95.43.95c-4.41,2-.87,11.25,1.47,17.38.65,1.7,1.22,3.18,1.55,4.33a1,1,0,0,1-.13.87,1,1,0,0,1-.55.41A25.65,25.65,0,0,0,1639.19,556.26Z" transform="translate(-152.78 -78.91)"/>
      </g>
      <path class="cls-14" d="M1608.14,257.1a5.64,5.64,0,0,1-2.72-.69c-4.25-2.31-5-9.57-5-10.39a1.56,1.56,0,1,1,3.1-.25c.14,1.65,1,6.63,3.4,7.91,1,.52,2.18.38,3.71-.45,7.41-4,8.63-5.25,8.68-5.3a1.4,1.4,0,0,1,1.06-.6,1.43,1.43,0,0,1,1.18.46c.1.1,10.07,9.11,21.42,4.9s11.73-11.41,11.73-11.48a1.55,1.55,0,0,1,1.55-1.5h.06a1.55,1.55,0,0,1,1.5,1.61c0,.38-.5,9.39-13.75,14.29-11,4.07-20.46-2.21-23.57-4.64a82.39,82.39,0,0,1-8.38,5A8.34,8.34,0,0,1,1608.14,257.1Z" transform="translate(-152.78 -78.91)"/>
      <path class="cls-15" d="M1680.1,192.78c-18-5.09-40.5-3.44-40.5-3.44,0,11.34,2.42,28.09,14.74,32.76,6.11,2.31,13.34.37,18.17-4C1679.37,211.87,1681.73,201.67,1680.1,192.78Z" transform="translate(-152.78 -78.91)"/>
      <path class="cls-4" d="M1664.31,223.61a3.11,3.11,0,0,1-3.11-3.11V191.67a3.12,3.12,0,1,1,6.23,0V220.5A3.12,3.12,0,0,1,1664.31,223.61Z" transform="translate(-152.78 -78.91)"/>
      <path class="cls-15" d="M1617.63,205.64c-1.06-13.8-2.91-16.82-2.91-16.82s-20,2.1-34.28,8c1,7.06,3.14,14.37,7.12,20.37a21.62,21.62,0,0,0,10.61,8.72c4.4,1.52,9.63,1,13.25-1.92a15.55,15.55,0,0,0,4.91-8.08A30.4,30.4,0,0,0,1617.63,205.64Z" transform="translate(-152.78 -78.91)"/>
      <path class="cls-4" d="M1606.8,227.86l-.34,0a3.11,3.11,0,0,1-2.76-3.43c1.19-11,.27-31.08.26-31.28a3.11,3.11,0,0,1,6.22-.29c0,.84,1,20.78-.29,32.24A3.11,3.11,0,0,1,1606.8,227.86Z" transform="translate(-152.78 -78.91)"/>
      <path class="cls-4" d="M1582.72,175.9a1.57,1.57,0,0,1-1.42-2.19c.18-.4,4.42-9.74,12.25-10.8,5-.67,10,2.11,15.12,8.27a1.56,1.56,0,0,1-2.4,2c-4.34-5.27-8.47-7.67-12.3-7.17-6.13.84-9.79,8.9-9.83,9A1.55,1.55,0,0,1,1582.72,175.9Z" transform="translate(-152.78 -78.91)"/>
      <path class="cls-4" d="M1639.6,174.28a1.6,1.6,0,0,1-1-.35,1.56,1.56,0,0,1-.22-2.19c.15-.19,15.48-18.41,37.9-3.69a1.56,1.56,0,0,1-1.71,2.6c-20-13.16-33.23,2.4-33.78,3.06A1.55,1.55,0,0,1,1639.6,174.28Z" transform="translate(-152.78 -78.91)"/>
      <g>
        <path class="cls-6" d="M1680.1,195.06a1.85,1.85,0,0,1-.56-.08c-17.45-4.93-39.57-3.39-39.79-3.37a2.08,2.08,0,0,1-.31-4.14c.94-.07,23.07-1.61,41.23,3.52a2.07,2.07,0,0,1-.57,4.07Z" transform="translate(-152.78 -78.91)"/>
        <path class="cls-6" d="M1659.82,224.31a16.5,16.5,0,0,1-5.85-1c-13.32-5.05-15.37-23.3-15.41-33.73a1,1,0,0,1,1-1h0a1,1,0,0,1,1,1c0,9.89,1.92,27.18,14.08,31.79,5.44,2.06,12.32.53,17.11-3.81,6.11-5.54,9-15.1,7.26-24.35a1,1,0,1,1,2-.37c1.83,9.93-1.28,20.24-7.91,26.26A20.25,20.25,0,0,1,1659.82,224.31Z" transform="translate(-152.78 -78.91)"/>
      </g>
      <path class="cls-14" d="M1687.36,235.44a1,1,0,0,1-.12-2.07c2-.24,7.9-1,9.87-4.25a4.27,4.27,0,0,0,.31-4.21,5,5,0,0,0-4.06-2.56,1,1,0,0,1-.72-.41,1,1,0,0,1-.19-.82,12.4,12.4,0,0,1,9.51-9.74,1,1,0,1,1,.5,2,10.27,10.27,0,0,0-7.72,7.1,6.82,6.82,0,0,1,4.53,3.49,6.35,6.35,0,0,1-.38,6.21c-2.24,3.73-7.58,4.78-11.4,5.24Z" transform="translate(-152.78 -78.91)"/>
      <g>
        <path class="cls-6" d="M1603.21,228.6a16.38,16.38,0,0,1-5.35-.9c-5.43-1.88-9-6-11.13-9.13-3.58-5.38-6-12.38-7.29-20.79a1,1,0,1,1,2-.31c1.22,8.11,3.56,14.82,7,19.95a20.68,20.68,0,0,0,10.08,8.32c4.3,1.48,9.12.8,12.26-1.75a14.66,14.66,0,0,0,4.56-7.55,35.36,35.36,0,0,0,1-6.83c.09-1.1.18-2.21.31-3.32a1,1,0,0,1,2.06.24c-.13,1.08-.21,2.16-.3,3.24a37.84,37.84,0,0,1-1,7.22,16.51,16.51,0,0,1-5.26,8.62A14.07,14.07,0,0,1,1603.21,228.6Z" transform="translate(-152.78 -78.91)"/>
        <g>
          <path class="cls-4" d="M1616.26,229.57a1.18,1.18,0,0,1-.26,0,1.55,1.55,0,0,1-1.27-1.8,99.43,99.43,0,0,0-1-37.81,1.56,1.56,0,0,1,3-.8,100.81,100.81,0,0,1,1,39.14A1.56,1.56,0,0,1,1616.26,229.57Z" transform="translate(-152.78 -78.91)"/>
          <path class="cls-6" d="M1580.47,199.7a2.07,2.07,0,0,1-.79-4c14.44-6,34-8.09,34.86-8.17a2.07,2.07,0,1,1,.43,4.12c-.2,0-19.83,2.14-33.71,7.88A2,2,0,0,1,1580.47,199.7Z" transform="translate(-152.78 -78.91)"/>
        </g>
      </g>
      <path class="cls-14" d="M1607.46,182.63a38.54,38.54,0,0,0-22.31,4.22c0,.41,0,.82,0,1.23l0,.63c0,.1,0,.2,0,.3s0,.27.11.11q.4-.24.81-.45t1.08-.54c.49-.24,1-.46,1.48-.67s1.24-.49,1.86-.72,1.46-.5,2.2-.72,1.67-.46,2.51-.64,1.86-.38,2.79-.52,2-.25,3-.31,2.17-.09,3.25-.06,1.91.1,2.86.21a1.07,1.07,0,0,0,1.15-.92A1,1,0,0,0,1607.46,182.63Z" transform="translate(-152.78 -78.91)"/>
      <path class="cls-14" d="M1669.59,184.7l-.25,0a77.33,77.33,0,0,0-29.55-1.38,1,1,0,0,1-.39-2,78.18,78.18,0,0,1,30.44,1.41,1,1,0,0,1,.76,1.25A1,1,0,0,1,1669.59,184.7Z" transform="translate(-152.78 -78.91)"/>
      <path class="cls-14" d="M1609.55,411.76c-1-2.84-2.92-5.35-4.56-7.87-1.8-2.77-3.66-5.5-5.64-8.15-4.71-6.31-13.1-10.4-20.49-14l-2.77-1.36c-.31-.16-2.2-1.35-2.44-1.17s1.58,1.61,1.8,1.81c.7.67,1.4,1.35,2.16,2a25,25,0,0,0,5,3c1.74.83,3.36,1.67,5,2.65a37.36,37.36,0,0,1,8.72,6.73c.46.52.91,1.05,1.32,1.6,3.6,4.83,6.43,10.22,10,15a25.28,25.28,0,0,0,1.79,2.16,13.74,13.74,0,0,0,1.69,1.57C1611,414.34,1610,413.09,1609.55,411.76Z" transform="translate(-152.78 -78.91)"/>
      <path class="cls-14" d="M1579.18,406.43l-25.37-18.27c-.26-.19-.84-.39-1,0s.52,1.18.73,1.48a14.24,14.24,0,0,0,2.61,2.65c5,4.17,10.6,7.73,15.91,11.55l4.19,3a13.89,13.89,0,0,1,1.7,1.23,1.08,1.08,0,0,0,.61.2,1,1,0,0,0,.61-1.88Z" transform="translate(-152.78 -78.91)"/>
      <path class="cls-14" d="M1568.19,416.05a9.06,9.06,0,0,0-1.34-.5,41.85,41.85,0,0,1-8.14-3.79q-1.9-1.12-3.75-2.33c-.62-.4-1.22-.84-1.85-1.22a4.14,4.14,0,0,0-1.53-.6c.06,1.14,1.43,2.3,2.24,3a33,33,0,0,0,13.24,7.23c.79.21,2.47.13,1.87-1.13A1.64,1.64,0,0,0,1568.19,416.05Z" transform="translate(-152.78 -78.91)"/>
      <path class="cls-14" d="M1442,289.91a1,1,0,0,1-.48-2c1.26-.65,2.48-1.36,3.71-2.07a37.9,37.9,0,0,1,9.76-4.44,33.59,33.59,0,0,1,14.29-.12c6.52,1.25,12.65,3.91,18.57,6.48a1,1,0,0,1-.82,1.91c-5.83-2.53-11.85-5.14-18.14-6.35a31.6,31.6,0,0,0-13.41.09c-3.28.8-6.16,2.47-9.21,4.23-1.26.73-2.51,1.45-3.79,2.11A1,1,0,0,1,1442,289.91Z" transform="translate(-152.78 -78.91)"/>
      <path class="cls-14" d="M1466.66,293.87c-15.24-5.26-28-7.14-37.83-5.59a2.41,2.41,0,0,1-2.2-.72c-1.77-2-3.47-4.12-5.12-6.17s-3.46-4.33-5.32-6.41c-5.08-5.68-9.83-9.17-15-11-4-1.42-7.93-1.38-11,.11a4.45,4.45,0,0,0-.89,7.42,79.38,79.38,0,0,1,6.35,6c1.25,1.29,2.48,2.62,3.64,4,1,1.16,2.11,3.38,3.39,4-.35-3.49-3.63-7.48-6-9.91-.43-.44-.87-.86-1.32-1.29-1.55-1.47-3.06-3-4.71-4.37a2.38,2.38,0,0,1,.47-4c2.5-1.22,5.91-1.22,9.36,0,4.79,1.68,9.27,5,14.1,10.4,1.82,2,3.57,4.21,5.25,6.31s3.38,4.23,5.19,6.26a4.5,4.5,0,0,0,4.07,1.39c9.53-1.5,21.92.35,36.83,5.5a1,1,0,0,0,.34.05,1,1,0,0,0,1-.7A1,1,0,0,0,1466.66,293.87Z" transform="translate(-152.78 -78.91)"/>
      <path class="cls-14" d="M1387.08,264.25a8.77,8.77,0,0,1,1.1.56c.37.23,2.18,1.76,2.42.84a1.06,1.06,0,0,0-.3-1,13.54,13.54,0,0,0-4.59-2c-1.13-.28-3.81-1.18-4.73-.16a2.36,2.36,0,0,0,1.75.75A16.5,16.5,0,0,1,1387.08,264.25Z" transform="translate(-152.78 -78.91)"/>
      <path class="cls-16" d="M1509.1,395.75h13.52a1.62,1.62,0,0,1,1.61,1.82l-1.41,11.7a1.63,1.63,0,0,1-1.61,1.43h-10.7a1.63,1.63,0,0,1-1.61-1.43l-1.41-11.7A1.62,1.62,0,0,1,1509.1,395.75Z" transform="translate(-152.78 -78.91)"/>
      <path class="cls-17" d="M1567.79,306.41" transform="translate(-152.78 -78.91)"/>
      <g class="cls-18">
        <path class="cls-19" d="M1647.77,316.07a86.17,86.17,0,0,1-15.71-2.69,62.3,62.3,0,0,1-11.11-4.19,44.84,44.84,0,0,1-7-4.28,27.11,27.11,0,0,1-3.42-3c-.28-.29-.38-.43-.69-.08s-.95.83-1,1.16.13.36.3.53c.39.39.81.76,1.22,1.12.69.61,1.39,1.24,2.12,1.8a43.57,43.57,0,0,0,6.89,4.33,61,61,0,0,0,10.85,4.26,85,85,0,0,0,15.33,2.92l2.08.19h.08a1,1,0,0,0,.09-2.07Z" transform="translate(-152.78 -78.91)"/>
      </g>
      <g class="cls-18">
        <path class="cls-19" d="M1522.17,362.1a1,1,0,0,1-.38-.07,1,1,0,0,1-.59-1.34,38.85,38.85,0,0,1,16.89-19.52c.63-.36,1.27-.7,1.92-1.05a27.79,27.79,0,0,0,4.55-2.79c2.53-2.05,3.29-4.7,3.69-8.33a1,1,0,0,1,1.14-.92,1,1,0,0,1,.92,1.15c-.36,3.25-1,6.95-4.45,9.71a29.55,29.55,0,0,1-4.87,3c-.63.33-1.26.67-1.88,1a36.75,36.75,0,0,0-16,18.46A1,1,0,0,1,1522.17,362.1Z" transform="translate(-152.78 -78.91)"/>
      </g>
      <g class="cls-18">
        <path class="cls-19" d="M1497.18,412.7a1,1,0,0,0-.93.17,26.19,26.19,0,0,1-11.77,5.54,17.66,17.66,0,0,1-2.71.28c-.29,0-1-.14-1.27.05s-.17,1.3-.2,1.6.75.3,1,.3c8.17,0,15-5.32,16.06-6.18C1497.28,413.88,1497.22,413.29,1497.18,412.7Z" transform="translate(-152.78 -78.91)"/>
      </g>
      <g class="cls-18">
        <path class="cls-19" d="M1741,357.3a8.68,8.68,0,0,0-1.25-1.06,48.14,48.14,0,0,0-5.14-3.23,31.23,31.23,0,0,0-11.63-3.87c-7.5-.77-11.76,1.95-17.18,5.4a115.69,115.69,0,0,1-11.73,6.25c-2.39,1.16-4.87,2.35-7.25,3.64-10.91,5.85-17.57,12.87-19.8,20.85a44.31,44.31,0,0,0-1.14,11.38c0,1.55,0,3.11-.13,4.66-.45,7.63-4.33,12.61-8.82,18.38l-1.89,2.45a1,1,0,0,0,.2,1.45,1,1,0,0,0,.63.22,1,1,0,0,0,.82-.41c.63-.83,1.26-1.64,1.88-2.44,4.51-5.79,8.76-11.25,9.25-19.53.09-1.58.11-3.17.13-4.75a43,43,0,0,1,1.07-10.86c2.07-7.41,8.39-14,18.78-19.57,2.35-1.27,4.8-2.46,7.18-3.61a119.28,119.28,0,0,0,11.94-6.36c5.28-3.36,9.09-5.8,15.84-5.09a29,29,0,0,1,10.5,3.43,45.25,45.25,0,0,1,4.57,2.78c1.3.9,2.62,2.32,4,3A2.88,2.88,0,0,0,1741,357.3Z" transform="translate(-152.78 -78.91)"/>
      </g>
      <g class="cls-18">
        <path class="cls-19" d="M1569.71,305a7.23,7.23,0,0,0-3.22,1.33c-.58.42-1.15.85-1.72,1.28q-2.05,1.56-4,3.21c-1.53,1.28-3,2.6-4.5,4s-3.13,3-4.6,4.64-3,3.4-4.34,5.21a50.21,50.21,0,0,0-3.71,5.67,36.26,36.26,0,0,0-2.72,6,27.2,27.2,0,0,0-1.12,4.37,1,1,0,0,0,.85,1.19.55.55,0,0,0,.18,0,1,1,0,0,0,1-.87c3.1-18.52,29.45-35.5,29.74-35.69s.2-.39-.15-.42A7.24,7.24,0,0,0,1569.71,305Z" transform="translate(-152.78 -78.91)"/>
      </g>
      <g class="cls-18">
        <path class="cls-19" d="M1724.27,579.38a1.12,1.12,0,0,1-.58-.17c-.31-.22-7.8-5.27-7.8-12.19,0-6.64-1.72-36.65-5.37-43.26-1.8-3.27-4.48-8.54-7.94-15.67a6.62,6.62,0,0,0-7-3.63,28.26,28.26,0,0,1-7.74,0,16.43,16.43,0,0,1-3.59-1.12c1.29,5.68,1.44,20.79-24.92,38.84l-17,11.11a1,1,0,0,1-1.43-.3,1,1,0,0,1,.3-1.44l17-11.1c31.27-21.41,23.51-38.42,23.42-38.59a1,1,0,0,1,1.41-1.38,22.14,22.14,0,0,0,5.12,1.93,25.87,25.87,0,0,0,7.14,0,8.74,8.74,0,0,1,9.16,4.78c3.44,7.1,6.1,12.34,7.89,15.58,4.08,7.39,5.63,39.2,5.63,44.26,0,5.81,6.8,10.41,6.87,10.46a1,1,0,0,1-.57,1.9Z" transform="translate(-152.78 -78.91)"/>
      </g>
      <g class="cls-18">
        <path class="cls-19" d="M1683.37,500.76c-.2-.26-5-6.33-10.44-6.89a7.15,7.15,0,0,0-4.21.8L1651.3,386.49a1,1,0,0,0-1.19-.86,1,1,0,0,0-.86,1.19l17.2,106.82c.74.72,1.47,1.46,2.19,2.2l.52,0c.54,0,1.09-.12,1.63-.16a4.43,4.43,0,0,1,2.28.33c4.44.72,8.62,6,8.67,6a1,1,0,0,0,.82.4,1,1,0,0,0,.63-.22A1,1,0,0,0,1683.37,500.76Z" transform="translate(-152.78 -78.91)"/>
      </g>
      <g>
        <path class="cls-4" d="M1732.24,275.46h-74.18a83.53,83.53,0,0,0-10.16,41c.23,10.94,3.86,21.89,13.17,28.37,1.77,1.23,3.67,2.46,5.51,3.5a41.39,41.39,0,0,1-4.31-21.09s11.53,14.52,38.87,6.41l8.11,6.83s15.94-12,6.69-61.08c0,0,27.7,17.28,27.49,56.21,0-2.35,2-5.89,2.56-8.32a64.43,64.43,0,0,0,1.44-13.5,51.23,51.23,0,0,0-6.55-25.8A125.69,125.69,0,0,0,1732.24,275.46Z" transform="translate(-152.78 -78.91)"/>
        <path class="cls-4" d="M1666.58,349.32a1,1,0,0,1-.51-.13c-1.7-1-3.58-2.16-5.59-3.56-8.51-5.93-13.35-16.3-13.62-29.2a84.83,84.83,0,0,1,10.3-41.48,1,1,0,0,1,.9-.52h74.18a1.05,1.05,0,0,1,.83.41l-.83.62.93-.48a128.42,128.42,0,0,1,8.61,12.43,52.45,52.45,0,0,1,6.69,26.33,66.47,66.47,0,0,1-1.46,13.72,24.6,24.6,0,0,1-1.21,3.56,15.35,15.35,0,0,0-1.34,4.55h0a1,1,0,0,1-1,1h0a1,1,0,0,1-1-1v0c.1-19.77-7.23-33.74-13.4-42a62.23,62.23,0,0,0-11.57-11.87c8.27,47.09-6.89,59.07-7.55,59.57a1,1,0,0,1-1.29,0l-7.69-6.47c-21.67,6.25-33.49-1.4-37.67-5.12a40.27,40.27,0,0,0,4.29,18.19,1,1,0,0,1-.21,1.22A1.09,1.09,0,0,1,1666.58,349.32Zm-7.91-72.82a82.81,82.81,0,0,0-9.73,39.89c.25,12.22,4.77,22,12.73,27.54.89.62,1.76,1.21,2.6,1.74a41.75,41.75,0,0,1-3-18.55,1,1,0,0,1,.73-.92,1,1,0,0,1,1.12.35c.11.13,11.49,13.85,37.76,6.05a1.09,1.09,0,0,1,1,.2l7.4,6.24c2.73-2.84,13.66-17.29,5.71-59.49a1,1,0,0,1,.44-1.05,1,1,0,0,1,1.13,0c.27.17,25.19,16.12,27.76,50.81A16.06,16.06,0,0,0,1745,327a64.39,64.39,0,0,0,1.42-13.29,50.39,50.39,0,0,0-6.41-25.28,122.44,122.44,0,0,0-8.27-12Z" transform="translate(-152.78 -78.91)"/>
      </g>
      <g>
        <path class="cls-6" d="M1740.41,219.44a20.2,20.2,0,0,1-7.6-2.53,2.09,2.09,0,0,0-1.08-.23,14.35,14.35,0,0,0-2.24.27c-.39.07-.73.14-.91.15-.59,0-1.19,0-1.78,0a44.74,44.74,0,0,1-34.63-16.41c-6.43-7.8-10.64-17.14-14.4-26l-.9-2.14c-7.64-18.14-15.55-36.9-35.9-43.66a32.57,32.57,0,0,0-10.26-1.68c-10,0-18.51,4.66-23.08,12.27a48.54,48.54,0,0,1,4.06-12.35c6.67-12.45,20-19.8,36.67-20.17h1.17c37.81,0,57.51,40.3,70.45,75.41C1720.35,183.5,1729.31,211.5,1740.41,219.44Z" transform="translate(-152.78 -78.91)"/>
        <path class="cls-6" d="M1649.53,108c37.17,0,56.66,39.93,69.45,74.63.35,1.1,7.84,24.5,17.73,34.91a19.65,19.65,0,0,1-3.39-1.53,3.07,3.07,0,0,0-1.59-.36,16.1,16.1,0,0,0-2.42.29c-.33.06-.61.12-.77.13q-.87,0-1.74,0a43.69,43.69,0,0,1-33.82-16c-6.35-7.7-10.52-17-14.25-25.79l-.9-2.13c-7.74-18.36-15.73-37.34-36.53-44.24a33.51,33.51,0,0,0-10.59-1.73c-8.44,0-15.84,3.19-20.88,8.63a37.71,37.71,0,0,1,2.77-7.19c6.49-12.11,19.53-19.26,35.78-19.62h1.15m0-2.08-1.19,0c-15.41.34-30.07,6.73-37.57,20.71-2.86,5.35-4.54,13.52-5.2,18.87a.26.26,0,0,0,.27.29.22.22,0,0,0,.23-.18c3.28-11.27,13.51-17.37,24.64-17.37a31.68,31.68,0,0,1,9.94,1.63c20.69,6.87,28.35,26.73,36.17,45.21,3.91,9.26,8.16,18.53,14.55,26.29a46,46,0,0,0,35.43,16.79c.61,0,1.21,0,1.82,0s2.17-.42,3.11-.42a1.21,1.21,0,0,1,.57.1,21,21,0,0,0,8.21,2.68h.11a1,1,0,0,0,.54-1.8c-11-7.69-20.2-36.7-20.2-36.7-11.71-31.76-31.77-76.09-71.43-76.09Z" transform="translate(-152.78 -78.91)"/>
      </g>
      <path class="cls-13" d="M1577.47,371.53c-.09-.81-.19-1.59-.29-2.35-.87-6.67-7.24-11.69-14.81-11.69h-49.16c-7.45,0-13.82,4.88-14.78,11.45-.12.88-.24,1.73-.35,2.59Z" transform="translate(-152.78 -78.91)"/>
      <rect class="cls-20" x="1362.04" y="278.58" width="2.08" height="38.26"/>
      <g>
        <path class="cls-7" d="M1126.75,924.36s10.45-2,25.71,32.36c0,0,26.52-2.6,40.38-4.21l-23.9-40.78Z" transform="translate(-152.78 -78.91)"/>
        <path class="cls-7" d="M1152.46,957.76a1,1,0,0,1-.94-.62c-14.54-32.7-24.5-31.76-24.6-31.76a1.06,1.06,0,0,1-1.17-.81,1,1,0,0,1,.7-1.21l42.19-12.63a1,1,0,0,1,1.19.47L1193.74,952a1.06,1.06,0,0,1,0,1,1,1,0,0,1-.81.57c-13.71,1.6-40.13,4.19-40.39,4.22Zm-21.84-33.48c4.54,2.21,12.58,9.27,22.49,31.34,4.22-.42,25.37-2.51,38-4L1168.45,913Z" transform="translate(-152.78 -78.91)"/>
      </g>
    </g>
  </g>
</svg>
