<svg id="Layer_1" data-name="Layer 1" xmlns="http://www.w3.org/2000/svg" xmlns:xlink="http://www.w3.org/1999/xlink" viewBox="0 0 375 538.93">
  <defs>
    <style>
      .cls-1 {
        fill: url(#linear-gradient);
      }

      .cls-2 {
        fill: #e1a77f;
      }

      .cls-3 {
        fill: #ad4e9c;
      }

      .cls-4 {
        fill: #4d0d2f;
      }

      .cls-5 {
        fill: #5d88c6;
      }

      .cls-6 {
        fill: #5b1541;
      }

      .cls-7 {
        fill: #190f15;
      }

      .cls-8 {
        fill: #240f1c;
      }

      .cls-9 {
        fill: #edbb8f;
      }

      .cls-10 {
        fill: #0aa2b1;
      }

      .cls-11 {
        fill: #7297cf;
      }

      .cls-12 {
        fill: #0db6d1;
      }

      .cls-13 {
        fill: #dce9ee;
      }

      .cls-14 {
        fill: #ca885d;
      }

      .cls-15 {
        fill: #f7e9db;
      }

      .cls-16 {
        fill: #dccdc4;
      }

      .cls-17 {
        fill: none;
        stroke: #5b1541;
        stroke-linecap: round;
        stroke-linejoin: round;
        stroke-width: 0.87px;
      }

      .cls-18 {
        opacity: 0.56;
      }

      .cls-19 {
        fill: #25429a;
      }

      .cls-20 {
        fill: #69625c;
      }
    </style>
    <linearGradient id="linear-gradient" x1="187.5" x2="187.5" y2="390" gradientUnits="userSpaceOnUse">
      <stop offset="0" stop-color="#fff"/>
      <stop offset="0.6" stop-color="#f16e7e"/>
    </linearGradient>
  </defs>
  <title>moimobile</title>
  <g>
    <rect class="cls-1" width="375" height="390"/>
    <g>
      <g>
        <path class="cls-2" d="M303.54,241.14s.87,3.16,0,10L323.1,255l8.35-32.1Z" transform="translate(0 -0.92)"/>
        <path class="cls-2" d="M323.1,255.46H323l-19.57-3.9a.44.44,0,0,1-.34-.48c.85-6.64,0-9.8,0-9.83a.44.44,0,0,1,.18-.48l27.92-18.21a.44.44,0,0,1,.49,0,.46.46,0,0,1,.17.46l-8.36,32.11A.44.44,0,0,1,323.1,255.46ZM304,250.79l18.76,3.74,8-30.63L304,241.33A30.94,30.94,0,0,1,304,250.79Z" transform="translate(0 -0.92)"/>
      </g>
      <path class="cls-3" d="M317.78,346.86a4.87,4.87,0,0,1-.65-.05,5,5,0,0,1-4-3c-7.42-17.55-14.12-27.48-15-28.74-2.71-.56-3.86-.8-4.34-1l0,.07c-4.25-.87-7.61-3.57-10.69-6.26l-.11-.1c-2.92-2.55-6.23-5.44-7.57-9.23a4,4,0,0,1,.94-4.38,10.32,10.32,0,0,1,1.34-1l-1.15-1.51,0-.09c-1-2.33-.72-4.76.95-7.23a4,4,0,0,1-.94-3.32,4.66,4.66,0,0,1,2.25-3.08,2.87,2.87,0,0,1,1.45-.45,1.51,1.51,0,0,1,.3,0c1.58.13,3.66,1.45,5.33,2.51l.82.51,2-.17c2.44-.21,5-.43,7.42-.72a5,5,0,0,1,2.15,0c1.64.51,2.34,2.34,2.44,3.76.17,2.28.11,4.64.05,6.93,0,1.14-.05,2.28-.06,3.41l.91,1.57c.91,1.57,1.82,3.16,2.69,4.75l.8,1.46c2,3.63,4,7.38,6.39,10.86a86.56,86.56,0,0,0,9.79,12.14,25.67,25.67,0,0,0,4.2,3.29,6.75,6.75,0,0,1,3,4.58,7.17,7.17,0,0,1-1.35,5.52l-5.3,6.93A5,5,0,0,1,317.78,346.86Zm-23.49-33.5,4.19.86.16,0,.1.13c.08.1,7.22,10.22,15.19,29.05a4.16,4.16,0,0,0,7.13.92l5.3-6.94a6.29,6.29,0,0,0,1.18-4.84,5.91,5.91,0,0,0-2.61-4,25.66,25.66,0,0,1-4.34-3.4h0a87.13,87.13,0,0,1-9.9-12.27c-2.38-3.51-4.44-7.28-6.43-10.92l-.8-1.46c-.87-1.59-1.78-3.17-2.69-4.74l-2-3.47,1,.71q0-1.33.06-2.67a68,68,0,0,0-.05-6.85c-.09-1.14-.62-2.61-1.83-3a4.36,4.36,0,0,0-1.8,0c-2.48.3-5,.51-7.45.72l-2.26.2-.12-.08-.95-.59c-1.59-1-3.58-2.26-4.94-2.38h-.22a2.19,2.19,0,0,0-1,.34,3.7,3.7,0,0,0-1.83,2.49,3,3,0,0,0,.93,2.79l.29.26-.23.31c-1.67,2.32-2,4.49-1.08,6.63l1.46,1.94h0l-.7.51a.34.34,0,0,0,.35.15,8.75,8.75,0,0,0-1.43,1,3.17,3.17,0,0,0-.74,3.47c1.27,3.57,4.49,6.38,7.33,8.87l.11.1c3.12,2.72,6.25,5.23,10.3,6.06Z" transform="translate(0 -0.92)"/>
      <g>
        <path class="cls-2" d="M250.41,286.91l10.42-2.54,2.68-13.26c-1.39-2.71-2.76-5.44-4.08-8.18a39.47,39.47,0,0,1-2.59-5.84c-.68-2.35-.75-4.83-1.44-7.17a14.4,14.4,0,0,0-5.69-7.73,41.75,41.75,0,0,1-7.82-6.86,11.27,11.27,0,0,1-3-5.34c-.22-1.12-.31-2.49-1.33-3a2.09,2.09,0,0,0-2.31.55c-1.6,1.62-1.64,4.29-.95,6.32a15.19,15.19,0,0,0,1.84,3.47c.22.31,1.6,2.74-.11,2.16,0,0-10.26-3.39-15.48-1.65a42.94,42.94,0,0,0-3.05-3.39c-.71-.51-1.18-2.66-2-3.44a8.17,8.17,0,0,0-7.64-1.65,2.16,2.16,0,0,0-1.86,2.24c-1.51,0-3.69.63-3.56,2.5s1.68,2,3.2,2.33a20,20,0,0,1,6.37,2.15,21,21,0,0,1,3.57,2.8c2.77,2.58,5,7,9,7.25,0,0,16.79,5.57,17.92,6.09s4.18,1.39,4.7,6.35c0,0,1.31,9.57,1.57,13.31Z" transform="translate(0 -0.92)"/>
        <path class="cls-2" d="M250.41,287.35a.41.41,0,0,1-.24-.08.43.43,0,0,1-.19-.3l-1.67-12.54c-.26-3.71-1.56-13.22-1.57-13.31-.45-4.31-2.84-5.32-4.12-5.87l-.33-.15c-.87-.4-12-4.12-17.82-6-3-.24-5-2.6-6.92-4.89a30.69,30.69,0,0,0-2.25-2.47,20.83,20.83,0,0,0-3.5-2.75,19.67,19.67,0,0,0-6.23-2.09l-.39-.08c-1.41-.26-3-.55-3.16-2.65a2.35,2.35,0,0,1,.65-1.82,4.54,4.54,0,0,1,2.92-1.14,2.61,2.61,0,0,1,2.17-2.23,8.59,8.59,0,0,1,8.05,1.76,6.25,6.25,0,0,1,1.12,1.93,4.45,4.45,0,0,0,.83,1.47,34.62,34.62,0,0,1,2.94,3.24c5.36-1.56,15.05,1.6,15.47,1.74a1.36,1.36,0,0,0,.28.07,4.5,4.5,0,0,0-.67-1.58,15.58,15.58,0,0,1-1.89-3.57c-.67-2-.79-4.9,1.05-6.77a2.5,2.5,0,0,1,2.82-.62c1.07.54,1.29,1.77,1.48,2.86,0,.15,0,.3.08.45A10.79,10.79,0,0,0,242.2,235a41.75,41.75,0,0,0,7.76,6.8,14.8,14.8,0,0,1,5.85,7.95,28.4,28.4,0,0,1,.75,3.69,28.32,28.32,0,0,0,.69,3.49,27.31,27.31,0,0,0,1.9,4.4c.23.46.46.92.67,1.37,1.27,2.64,2.64,5.39,4.08,8.17a.46.46,0,0,1,0,.28l-2.68,13.26a.44.44,0,0,1-.33.34l-10.42,2.54ZM205.89,232a3.78,3.78,0,0,0-2.59.89,1.39,1.39,0,0,0-.41,1.15c.09,1.36.94,1.58,2.45,1.86l.39.08a20.56,20.56,0,0,1,6.5,2.19,21.21,21.21,0,0,1,3.66,2.87,28.33,28.33,0,0,1,2.32,2.54c1.83,2.16,3.72,4.4,6.37,4.59l.11,0c.68.23,16.82,5.58,18,6.11l.31.13c1.34.57,4.14,1.77,4.64,6.57,0,.08,1.31,9.61,1.57,13.32l1.61,12,9.68-2.37,2.6-12.84c-1.42-2.74-2.77-5.45-4-8.05-.21-.45-.44-.91-.67-1.36a27.58,27.58,0,0,1-1.95-4.55,29,29,0,0,1-.72-3.6A28.93,28.93,0,0,0,255,250a14,14,0,0,0-5.51-7.49,42.62,42.62,0,0,1-7.9-6.93,11.58,11.58,0,0,1-3.11-5.55c0-.15-.05-.31-.08-.47-.16-.92-.33-1.88-1-2.23a1.67,1.67,0,0,0-1.81.46c-1.57,1.59-1.44,4.16-.85,5.88a14.43,14.43,0,0,0,1.79,3.36s1.24,1.85.64,2.63c-.25.33-.66.39-1.24.2-.1,0-10.19-3.33-15.21-1.66a.44.44,0,0,1-.48-.13,37.44,37.44,0,0,0-3-3.32,4.47,4.47,0,0,1-1.11-1.82,6.21,6.21,0,0,0-.93-1.66,7.72,7.72,0,0,0-7.23-1.54,1.76,1.76,0,0,0-1.54,1.8.43.43,0,0,1-.12.32.42.42,0,0,1-.32.13Z" transform="translate(0 -0.92)"/>
      </g>
      <g>
        <path class="cls-4" d="M331.45,222.93c-.41,2-2.79,4.2-4.11,5.68a63.87,63.87,0,0,0-5.1,6.06,34,34,0,0,0-5.47,19.09c.09,4.57,1.61,9.15,5.5,11.86.74.51,1.53,1,2.3,1.46a17.24,17.24,0,0,1-1.8-8.81s4.82,6.06,16.24,2.67l3.39,2.86s6.66-5,2.8-25.52c0,0,11.57,7.22,11.48,23.48,0-1,.86-2.46,1.07-3.47a26.82,26.82,0,0,0,.6-5.64,21.52,21.52,0,0,0-2.73-10.79c-2.55-4.37-6.19-7.81-8.25-12.51a22,22,0,0,1-.17-17.14l-.25-5.9-11.76-1.62Z" transform="translate(0 -0.92)"/>
        <path class="cls-4" d="M324.57,267.51a.5.5,0,0,1-.21-.05c-.71-.4-1.5-.9-2.34-1.49-3.56-2.48-5.58-6.81-5.69-12.2a34.62,34.62,0,0,1,5.55-19.35,46.52,46.52,0,0,1,4-4.87c.37-.41.74-.81,1.1-1.22l.83-.9c1.28-1.36,2.87-3.05,3.19-4.59h0l3.73-18.24a.46.46,0,0,1,.49-.34L347,205.88a.44.44,0,0,1,.38.41l.24,5.91a.43.43,0,0,1,0,.19,21.58,21.58,0,0,0,.18,16.78,36.79,36.79,0,0,0,4.64,7.3,51,51,0,0,1,3.58,5.18,21.9,21.9,0,0,1,2.8,11,28.2,28.2,0,0,1-.61,5.73,10.47,10.47,0,0,1-.51,1.48,6.71,6.71,0,0,0-.56,1.91h0a.43.43,0,1,1-.86,0h0a28.68,28.68,0,0,0-5.6-17.55,26.41,26.41,0,0,0-4.84-5c3.46,19.68-2.87,24.69-3.15,24.9a.44.44,0,0,1-.54,0l-3.21-2.71c-9.06,2.62-14-.58-15.75-2.14a17,17,0,0,0,1.8,7.61.43.43,0,0,1-.39.62ZM331.88,223c-.37,1.78-2.05,3.57-3.41,5-.29.31-.57.6-.81.87s-.73.82-1.11,1.23a46.4,46.4,0,0,0-3.95,4.78,33.62,33.62,0,0,0-5.4,18.84c.1,5.11,2,9.2,5.32,11.51l1.08.73a17.46,17.46,0,0,1-1.26-7.75.43.43,0,0,1,.77-.24c0,.05,4.8,5.79,15.78,2.53a.45.45,0,0,1,.4.08l3.09,2.61c1.14-1.19,5.71-7.23,2.39-24.86a.44.44,0,0,1,.18-.44.42.42,0,0,1,.47,0A28.33,28.33,0,0,1,357,259.14a6.39,6.39,0,0,0,.31-.94,27.14,27.14,0,0,0,.59-5.55,21,21,0,0,0-2.68-10.57,49.75,49.75,0,0,0-3.52-5.08,38,38,0,0,1-4.75-7.48,22.57,22.57,0,0,1-.21-17.39l-.23-5.44-11-1.52C335,207.9,331.9,222.91,331.88,223Z" transform="translate(0 -0.92)"/>
      </g>
      <g>
        <path class="cls-5" d="M253.64,283.25s-2.65,2.71-5.07,4.8a3.84,3.84,0,0,0-1.33,2.92v6l-.89,3.58a7.71,7.71,0,0,0,.7,5.55l5.52,10.2,10,.88Z" transform="translate(0 -0.92)"/>
        <path class="cls-5" d="M262.58,317.6h0l-10-.88a.46.46,0,0,1-.34-.23l-5.52-10.19a8.13,8.13,0,0,1-.75-5.86l.89-3.53V291a4.29,4.29,0,0,1,1.48-3.25c2.38-2.05,5-4.75,5-4.78a.43.43,0,0,1,.42-.11.44.44,0,0,1,.31.31L263,317.06a.43.43,0,0,1-.09.39A.41.41,0,0,1,262.58,317.6Zm-9.74-1.73,9.17.81-8.59-32.59c-.91.9-2.81,2.77-4.57,4.29a3.4,3.4,0,0,0-1.18,2.59v6a.41.41,0,0,1,0,.11l-.89,3.58a7.21,7.21,0,0,0,.66,5.23Z" transform="translate(0 -0.92)"/>
      </g>
      <g>
        <path class="cls-4" d="M302.18,172.66s-9-2.86-18.62,11.26c-4.18,6.14-5.86,15.73-6.24,22.91a41,41,0,0,0,2.76,17.44c2.24,5.6,5.35,10.94,6.46,16.94.59,3.15.55,6.55-1,9.37.36-.69,9.6,0,10.65,0h7.31Z" transform="translate(0 -0.92)"/>
        <path class="cls-4" d="M303.54,251h-7.31c-.24,0-.88,0-1.74-.08-2.15-.12-7.8-.44-8.59-.09a.43.43,0,0,1-.71-.49h0c1.29-2.4,1.6-5.46.93-9.1a52.62,52.62,0,0,0-4.25-11.82c-.74-1.64-1.51-3.33-2.19-5a41.31,41.31,0,0,1-2.79-17.63c.23-4.51,1.32-15.8,6.31-23.12,9.69-14.23,18.74-11.55,19.12-11.43a.44.44,0,0,1,.3.4L304,250.6a.45.45,0,0,1-.12.31A.48.48,0,0,1,303.54,251Zm-17.67-.15Zm2.28-1c1.38,0,3.41.08,6.39.24.84,0,1.46.08,1.69.08h6.87L301.76,173c-1.61-.31-9.51-1.08-17.84,11.15-4.87,7.15-5.94,18.25-6.17,22.69a40.41,40.41,0,0,0,2.74,17.26c.67,1.67,1.43,3.36,2.17,5a53.21,53.21,0,0,1,4.31,12,15.26,15.26,0,0,1-.6,8.79A16.26,16.26,0,0,1,288.15,249.85Z" transform="translate(0 -0.92)"/>
      </g>
      <g>
        <path class="cls-6" d="M350.38,226.14c1.18-1.58,2.68-5.44-.51-13.45l-2.49-17.53a.2.2,0,0,0,0-.11l-10.42-23.89,1-4.93c.6-.55,4.06-3.58,8.48-3.58,3.21,0,6.22,1.58,8.95,4.69.15.13,10.27,8.9,7.83,27-.1.56-2.49,14.38,3,23.14-2.12-1.65-5.78-4.93-6.19-8.57a.45.45,0,0,0-.44-.39h0a.44.44,0,0,0-.42.42C359.11,209.11,358.34,225.08,350.38,226.14Z" transform="translate(0 -0.92)"/>
        <path class="cls-6" d="M346.43,162.22v.87c3.08,0,6,1.52,8.62,4.53a.47.47,0,0,0,.1.1c.1.08,10,8.72,7.64,26.53-.1.55-2.18,12.57,1.92,21.42-1.91-1.74-4-4.19-4.29-6.8a.87.87,0,0,0-.86-.77h0a.87.87,0,0,0-.83.83c0,.15-.71,14.41-7.4,16.56,1-2.05,1.75-6-1-12.91l-2.48-17.48a1,1,0,0,0-.06-.23l-10.36-23.76,1-4.66a13,13,0,0,1,8.08-3.36v-.87m0,0c-5.09,0-8.87,3.79-8.87,3.79l-1.08,5.2,10.47,24,2.5,17.59c3.19,8,1.63,11.69.57,13.1a.42.42,0,0,0,.32.67h.06c8.45-1.07,9.15-17.6,9.15-17.6.43,3.74,4,7.05,6.4,8.85a.43.43,0,0,0,.25.09.42.42,0,0,0,.35-.65c-5.44-8.72-2.91-22.85-2.91-22.85,2.51-18.59-7.93-27.36-7.93-27.36-3.22-3.66-6.45-4.83-9.28-4.83Z" transform="translate(0 -0.92)"/>
      </g>
      <g>
        <path class="cls-7" d="M333.27,170.58a14.82,14.82,0,0,1-1.21-3.77,2.88,2.88,0,0,1,.72-2.28,2.61,2.61,0,0,1,1.93-.68,4.13,4.13,0,0,1,2,.69c2.08,1.32,2.69,3.51,2.76,5.79,0-.56,1.85-1.32,2.23-1.45a4.75,4.75,0,0,1,6.24,4.53,2.64,2.64,0,0,1-1.72,2.69,4.55,4.55,0,0,1,4.3,1.09,2.84,2.84,0,0,1,.69,1.51,3.32,3.32,0,0,1-.65,2.49c-1.07,1.38-3.68,2-5.33,2L337,180.91Z" transform="translate(0 -0.92)"/>
        <path class="cls-8" d="M345.2,183.63a.25.25,0,0,1-.12,0l-8.22-2.28a.45.45,0,0,1-.3-.27s-3.67-10.26-3.7-10.33h0c-.12-.34-.26-.68-.4-1a9.23,9.23,0,0,1-.83-2.87,3.24,3.24,0,0,1,.85-2.62,3,3,0,0,1,2.26-.8,4.44,4.44,0,0,1,2.17.76,6.44,6.44,0,0,1,2.89,5.11,8.92,8.92,0,0,1,1.74-.82,5.17,5.17,0,0,1,6.8,4.95,3.79,3.79,0,0,1-.65,2.13,4.5,4.5,0,0,1,3.13,1.36,3.26,3.26,0,0,1,.79,1.72,3.74,3.74,0,0,1-.74,2.82C349.64,183,346.74,183.63,345.2,183.63Zm-7.9-3.08,7.95,2.21c1.49,0,4-.58,4.93-1.84a2.89,2.89,0,0,0,.57-2.16,2.48,2.48,0,0,0-.58-1.28,4.16,4.16,0,0,0-3.88-1,.43.43,0,1,1-.19-.84,2.28,2.28,0,0,0,1.38-2.27,4.46,4.46,0,0,0-2.61-4,4.4,4.4,0,0,0-3.06-.12,5.58,5.58,0,0,0-1.94,1,.43.43,0,0,1-.42.41.41.41,0,0,1-.44-.42h0c-.08-2.65-.9-4.38-2.56-5.43a3.67,3.67,0,0,0-1.76-.62,2.12,2.12,0,0,0-1.6.55,2.39,2.39,0,0,0-.6,1.93,8.57,8.57,0,0,0,.78,2.61c.14.35.28.7.41,1.06S336.78,179.1,337.3,180.55Z" transform="translate(0 -0.92)"/>
      </g>
      <g>
        <path class="cls-4" d="M325.83,168.05c0,.2.94.28,1.14.31a20.11,20.11,0,0,1,2.76.65,20.42,20.42,0,0,1,5,2.48A30.16,30.16,0,0,1,346.67,187a22.9,22.9,0,0,1,.8,11.29c-2.59-2.78-5.37-5.41-8.06-8.1l-9.1-9.1-2.19-2.19Z" transform="translate(0 -0.92)"/>
        <path class="cls-4" d="M347.47,198.73a.45.45,0,0,1-.32-.14c-1.8-1.94-3.72-3.83-5.59-5.66l-2.46-2.43-11.29-11.29a.48.48,0,0,1-.12-.22c-1.77-8.38-2.17-10.31-2.27-10.78,0,0,0-.05,0-.08a.48.48,0,0,1,0-.17.46.46,0,0,1,.39-.34.46.46,0,0,1,.38.16,4.62,4.62,0,0,0,.69.13l.19,0a21.51,21.51,0,0,1,2.81.65,21.29,21.29,0,0,1,5.13,2.54,30.73,30.73,0,0,1,12.09,15.74,23.17,23.17,0,0,1,.82,11.5.45.45,0,0,1-.31.34Zm-19-20,11.2,11.2c.81.82,1.63,1.62,2.45,2.43,1.67,1.64,3.38,3.32,5,5.05a22.57,22.57,0,0,0-.94-10.23,29.78,29.78,0,0,0-11.74-15.28,20.19,20.19,0,0,0-4.91-2.43,20.53,20.53,0,0,0-2.71-.63l-.15,0-.33-.05C326.89,171,328.3,177.68,328.52,178.68Z" transform="translate(0 -0.92)"/>
      </g>
      <path class="cls-9" d="M331.45,222.93c6.93,1.6,13.25-3.29,13.75-11.07l-20.35-28.05v39.45Z" transform="translate(0 -0.92)"/>
      <g>
        <path class="cls-4" d="M299,183.06s10.07-5.09,25.9.75c0,0-5-10.26-16.39-9.82C308.46,174,299.35,174.42,299,183.06Z" transform="translate(0 -0.92)"/>
        <path class="cls-4" d="M324.85,184.24l-.15,0c-15.45-5.7-25.45-.83-25.55-.78a.44.44,0,0,1-.43,0,.42.42,0,0,1-.2-.38c.41-8.93,9.82-9.48,9.92-9.49,11.53-.45,16.75,10,16.8,10.07a.43.43,0,0,1-.07.48A.43.43,0,0,1,324.85,184.24ZM310,180.55A42.46,42.46,0,0,1,323.88,183c-1.59-2.52-6.53-9-15.4-8.59-.34,0-8.23.49-9,8A28.46,28.46,0,0,1,310,180.55Z" transform="translate(0 -0.92)"/>
      </g>
      <g>
        <path class="cls-9" d="M137.09,481c-1.76,5.78-3.46,14.61-3.46,14.61l-16.33,8.17V492.22a21.28,21.28,0,0,0,1.73-7.79c.15-2.26.44-4.53.67-6.79l.11-1.08,7.53-6.18Z" transform="translate(0 -0.92)"/>
        <path class="cls-9" d="M117.3,504.19a.46.46,0,0,1-.23-.06.44.44,0,0,1-.21-.37V492.22a.41.41,0,0,1,0-.19,21.3,21.3,0,0,0,1.69-7.63c.1-1.56.27-3.14.44-4.67.08-.71.15-1.42.23-2.13l.1-1.09a.47.47,0,0,1,.16-.29l7.53-6.18a.44.44,0,0,1,.6,0l9.75,10.61a.43.43,0,0,1,.1.42c-1.74,5.69-3.43,14.48-3.45,14.56a.41.41,0,0,1-.23.31l-16.34,8.17A.43.43,0,0,1,117.3,504.19Zm.43-11.88v10.75l15.52-7.76c.27-1.36,1.78-9,3.36-14.21L127.3,471l-7.08,5.81-.09.9c-.07.72-.15,1.43-.23,2.14-.16,1.52-.33,3.1-.44,4.64A21.91,21.91,0,0,1,117.73,492.31Z" transform="translate(0 -0.92)"/>
      </g>
      <g>
        <polygon class="cls-2" points="147.06 349.13 139.32 363.94 138.47 373.37 157.97 375.91 163.81 360.18 160.73 345.39 147.06 349.13"/>
        <path class="cls-2" d="M158,377.27h-.05l-19.51-2.55a.43.43,0,0,1-.37-.47l.85-9.43a.42.42,0,0,1,0-.16l7.75-14.81a.46.46,0,0,1,.27-.22l13.66-3.74a.45.45,0,0,1,.34.05.39.39,0,0,1,.2.28L164.23,361a.49.49,0,0,1,0,.24L158.38,377A.43.43,0,0,1,158,377.27Zm-19-3.35,18.75,2.44,5.67-15.3-3-14.21-13,3.57L139.74,365Z" transform="translate(0 -0.92)"/>
      </g>
      <g>
        <path class="cls-7" d="M254.35,332,240,314.37c-11.4-11.87-22.83-23.7-34.15-35.65a35.81,35.81,0,0,0-7.38-6.48,12.08,12.08,0,0,0-9.44-1.61c-4,1.2-6.62,5-8.29,8.79-10.45,23.86-22,47.15-33.59,70.49l-.07.14a43.06,43.06,0,0,0,16.73,11c1,.38,6.49-6.86,7.26-7.72q4.45-5,8.54-10.27,4.82-6.26,9.1-12.92c.72-1.12,6.77-12.37,7.4-12.15.41.13.65,1.94.76,2.33A93,93,0,0,0,210,347.93a1.37,1.37,0,0,0,.61.58,1.39,1.39,0,0,0,1-.14C225.81,342.74,240.11,337.47,254.35,332Z" transform="translate(0 -0.92)"/>
        <path class="cls-7" d="M163.86,361.51a.78.78,0,0,1-.22,0,43.57,43.57,0,0,1-16.89-11.12.42.42,0,0,1-.07-.49L148.1,347c10.91-22,22.18-44.81,32.22-67.72,2.13-4.87,5.1-8,8.57-9a12.49,12.49,0,0,1,9.78,1.66,36.1,36.1,0,0,1,7.48,6.55c8.87,9.38,18,18.83,26.77,28l7.37,7.67,14.39,17.7a.43.43,0,0,1,.09.38.45.45,0,0,1-.27.3l-13.18,5c-9.7,3.66-19.72,7.44-29.52,11.34a1.85,1.85,0,0,1-1.3.14,1.82,1.82,0,0,1-.82-.74,93.24,93.24,0,0,1-13.25-27.73c0-.1-.06-.28-.1-.5a10.7,10.7,0,0,0-.33-1.33c-1,1.24-4.11,6.75-5.49,9.22-.73,1.3-1.26,2.25-1.45,2.55-2.85,4.42-5.92,8.77-9.13,12.94-2.72,3.53-5.6,7-8.56,10.3-.15.17-.48.59-.92,1.14C166.48,359.74,164.76,361.51,163.86,361.51ZM147.59,350a42.67,42.67,0,0,0,16.35,10.69c.8-.13,4.59-4.87,5.83-6.43.46-.57.8-1,1-1.18,2.94-3.29,5.81-6.74,8.51-10.25,3.2-4.15,6.26-8.48,9.09-12.88.17-.28.73-1.26,1.42-2.5,5.45-9.72,5.9-10,6.48-9.84s.67.81,1,2.2a3.06,3.06,0,0,0,.09.43,92.38,92.38,0,0,0,13.12,27.48,1.13,1.13,0,0,0,.41.41,1.15,1.15,0,0,0,.68-.13c9.8-3.9,19.83-7.68,29.54-11.34l12.61-4.78-14-17.21L232.29,307c-8.8-9.15-17.9-18.61-26.77-28a35.61,35.61,0,0,0-7.29-6.41,11.66,11.66,0,0,0-9.09-1.57c-4.07,1.23-6.61,5.33-8,8.56-10,22.92-21.32,45.72-32.23,67.76Z" transform="translate(0 -0.92)"/>
      </g>
      <path class="cls-4" d="M333.81,203a88.34,88.34,0,0,1-.28,9.57.15.15,0,0,0,.28.11c1-1.43,3.71-5.6,4.06-9.24Z" transform="translate(0 -0.92)"/>
      <g>
        <path class="cls-7" d="M117.3,492.22s4,6.52,16.33,3.37a75,75,0,0,0,2.24,11.57c.86,2.56,1.47,5.71.1,8.21-1.49,2.76-4.64,3.41-7.51,3.69-5.94.56-12,.54-17.84,1.66-4.37.82-9.65,2.24-12.12,6.31,0,0-12.92,2.3-17,1.4a34.85,34.85,0,0,1-8.09-3.14c-3.69-2,.89-5.16,2.69-6.15,3.44-1.88,6.87-3.76,10.43-5.41s7.22-2.78,10.66-4.62a63.92,63.92,0,0,0,11.31-7.7C111.45,498.92,116,496,117.3,492.22Z" transform="translate(0 -0.92)"/>
        <path class="cls-7" d="M84.15,529.07a13.48,13.48,0,0,1-2.7-.21,36.18,36.18,0,0,1-8.21-3.19,2.61,2.61,0,0,1-1.62-2.23c0-2.2,3.6-4.28,4.32-4.68,3.39-1.86,6.88-3.77,10.44-5.42,1.47-.68,3-1.28,4.44-1.87a59.65,59.65,0,0,0,6.2-2.74,63.83,63.83,0,0,0,11.24-7.65c.57-.49,1.21-1,1.87-1.53,2.69-2.14,5.75-4.58,6.76-7.48a.42.42,0,0,1,.36-.28.43.43,0,0,1,.42.2c0,.06,4,6.2,15.86,3.18a.43.43,0,0,1,.35.06.48.48,0,0,1,.19.31A73.31,73.31,0,0,0,136.28,507c1.21,3.63,1.24,6.43.08,8.56-1.6,2.94-4.87,3.63-7.86,3.91-2,.19-4.08.32-6.08.44a95,95,0,0,0-11.72,1.21c-4.54.86-9.49,2.26-11.82,6.12a.48.48,0,0,1-.3.2A107.16,107.16,0,0,1,84.15,529.07Zm33.26-36c-1.29,2.8-4.17,5.1-6.74,7.14-.65.52-1.28,1-1.85,1.51a65.58,65.58,0,0,1-11.39,7.76,61.14,61.14,0,0,1-6.29,2.78c-1.45.58-3,1.17-4.39,1.84-3.54,1.64-7,3.55-10.38,5.4-1.45.79-3.88,2.5-3.88,3.92,0,.54.39,1,1.17,1.47a35.12,35.12,0,0,0,8,3.1c3.66.81,15-1.09,16.61-1.37,2.55-4,7.64-5.47,12.3-6.35a95.3,95.3,0,0,1,11.83-1.23c2-.12,4-.24,6-.43,2.76-.27,5.77-.88,7.17-3.46,1-1.92,1-4.49-.13-7.88a70.52,70.52,0,0,1-2.2-11.16C123.28,498.51,118.79,494.69,117.41,493.09Z" transform="translate(0 -0.92)"/>
      </g>
      <g>
        <path class="cls-7" d="M117.73,395.63c0,.08-5.1,1.2-5.53,1.25a27.48,27.48,0,0,1-6.9-.13c-4.31-.63-10-2.38-13.07-5.7,0,0-1.94-3.31,1.38-4.2a46.13,46.13,0,0,0,8.11-3.58l18.46-5.52S132,371.31,134,369.61s2.36-1.5,5.31-4.75a11.8,11.8,0,0,0,6.34,3.49l3.63,22.21Z" transform="translate(0 -0.92)"/>
        <path class="cls-7" d="M109.29,397.47a29,29,0,0,1-4.05-.29c-2.16-.32-9.51-1.67-13.33-5.84l-.06-.07a4.21,4.21,0,0,1-.43-3.24,2.85,2.85,0,0,1,2.07-1.6,46,46,0,0,0,8-3.54l.09,0L120,377.34c.75-.41,11.83-6.46,13.72-8.06.62-.52,1.09-.88,1.51-1.19a21.86,21.86,0,0,0,3.76-3.52.36.36,0,0,1,.32-.14.43.43,0,0,1,.32.14,11.49,11.49,0,0,0,6.09,3.35.45.45,0,0,1,.36.36l3.62,22.2a.42.42,0,0,1-.35.5l-31.56,5.08v0a49,49,0,0,1-5.54,1.28A26.56,26.56,0,0,1,109.29,397.47Zm-16.71-6.68c3.64,3.93,10.7,5.22,12.78,5.53a27.19,27.19,0,0,0,6.8.13c.36,0,4.79-1,5.34-1.19a.44.44,0,0,1,.16-.06l31.13-5-3.51-21.47a12.12,12.12,0,0,1-5.95-3.24,22.37,22.37,0,0,1-3.57,3.3c-.43.32-.88.65-1.47,1.16-2,1.7-13.42,7.91-13.91,8.18l-.08,0-18.41,5.51a44.89,44.89,0,0,1-8.17,3.6,2,2,0,0,0-1.49,1.09A3.24,3.24,0,0,0,92.58,390.79Z" transform="translate(0 -0.92)"/>
      </g>
      <g>
        <path class="cls-10" d="M139.33,391.34c-3.53-.49-10.33,0-13.43,1.06-1.26.45-1.25-1.56-1.38-2.3a38.16,38.16,0,0,0-2.94-10.1,6.5,6.5,0,0,0-3-3.4,7.3,7.3,0,0,0-4.17-.05,32.74,32.74,0,0,0-6.91,1.9,15,15,0,0,0-3.06,1.75A9.73,9.73,0,0,0,102.4,382c-.34.45-.51.66,0,.83a9,9,0,0,0,2.2,0,7.19,7.19,0,0,1,2.41.61,22.26,22.26,0,0,1,11.29,11.24.69.69,0,0,1-.61,1,20.86,20.86,0,0,1-3.34.81,33.73,33.73,0,0,1-6,.76,18.09,18.09,0,0,1-6.17-.61,37.57,37.57,0,0,1-6.87-2.7,33.19,33.19,0,0,1-3.18-2.19c-.5.74-.36,2.39-.25,3.26a6.49,6.49,0,0,0,1.27,3.25c2.21,2.8,8.2,4.14,11.49,4.5,5.83.64,11.77-.92,17-3.49a45.21,45.21,0,0,1,5.74-2.66c3.94-1.3,8,.3,12.06-.39a2.47,2.47,0,0,0-.11-4.86Z" transform="translate(0 -0.92)"/>
        <path class="cls-10" d="M107.32,403.32a24.89,24.89,0,0,1-2.71-.15c-.91-.1-9-1.08-11.78-4.67a6.85,6.85,0,0,1-1.36-3.45c-.22-1.76-.11-2.93.32-3.57a.47.47,0,0,1,.28-.18.42.42,0,0,1,.33.07l.94.69a19.57,19.57,0,0,0,2.19,1.48,36.42,36.42,0,0,0,6.79,2.66,17,17,0,0,0,6,.59,32.9,32.9,0,0,0,5.94-.74c.37-.09.77-.17,1.17-.24a9.64,9.64,0,0,0,2.1-.55l.1,0a.42.42,0,0,0,.3-.16.28.28,0,0,0,0-.23,21.94,21.94,0,0,0-11.06-11,6.91,6.91,0,0,0-2.26-.58,7.6,7.6,0,0,0-.76.05,3.66,3.66,0,0,1-1.55,0,.86.86,0,0,1-.62-.51c-.11-.35.1-.63.35-1a8.37,8.37,0,0,1,1.9-1.73l.28-.21a15.41,15.41,0,0,1,3.14-1.8,33.94,33.94,0,0,1,7-1.93,7.46,7.46,0,0,1,4.42.09,6.85,6.85,0,0,1,3.19,3.61A38.67,38.67,0,0,1,125,390c0,.12,0,.27,0,.44.06.47.16,1.35.45,1.53,0,0,.1.06.3,0,3.31-1.18,10.16-1.56,13.64-1.08h0a2.9,2.9,0,0,1,2.47,2.87,2.84,2.84,0,0,1-2.34,2.84,21.87,21.87,0,0,1-5.48,0,16.24,16.24,0,0,0-6.53.34,30.33,30.33,0,0,0-4.27,1.93l-1.41.71A33.57,33.57,0,0,1,107.32,403.32Zm-15-10.92a7.1,7.1,0,0,0,0,2.54,6,6,0,0,0,1.18,3c2.12,2.69,8,4,11.19,4.34,6.6.72,12.75-1.47,16.74-3.44l1.4-.71a29.55,29.55,0,0,1,4.4-2,17.19,17.19,0,0,1,6.87-.39,21,21,0,0,0,5.26,0,2,2,0,0,0-.1-4h0c-3.36-.46-10.12-.08-13.23,1a1.18,1.18,0,0,1-1.05-.07c-.65-.4-.76-1.43-.85-2.17a3.14,3.14,0,0,0,0-.39,36.67,36.67,0,0,0-2.9-10,6.16,6.16,0,0,0-2.75-3.19,6.86,6.86,0,0,0-3.92,0,32,32,0,0,0-6.82,1.87,13.55,13.55,0,0,0-3,1.7l-.28.2a7.61,7.61,0,0,0-1.7,1.53,1.55,1.55,0,0,0-.13.17,3.36,3.36,0,0,0,1.14,0,5.43,5.43,0,0,1,.89-.05,7.33,7.33,0,0,1,2.55.64,22.5,22.5,0,0,1,11.53,11.48,1.09,1.09,0,0,1,0,1,1.26,1.26,0,0,1-.86.59,10.53,10.53,0,0,1-2.24.58c-.38.07-.76.14-1.12.23a33.37,33.37,0,0,1-6.1.77,18,18,0,0,1-6.31-.63,36.86,36.86,0,0,1-7-2.73,19.19,19.19,0,0,1-2.3-1.54Z" transform="translate(0 -0.92)"/>
      </g>
      <g>
        <path class="cls-8" d="M301.37,347.92c-1.81,5.73-3.91,11.45-5.36,17.26-1.76,7.08-5.18,14-10.79,18.78-8.52,7.3-18.5,6.42-28.89,6.42H231.84c-19.39,0-38.78.21-58.16-.18-3-.06-7-.41-9.18,1.93-1.29,1.37-1.67,3.34-1.9,5.21-1.62,13.08,1.23,26.4-3.8,38.94C154.22,447.71,147,457.81,141.86,469a68.42,68.42,0,0,0-4.48,12.34c-6-.21-12.67-1.05-17.57-4.73,0,0,6.33-39.77,10.2-54.2,2.47-9.21,4.79-18.45,7.11-27.69,1.16-4.62,2.32-9.25,3.5-13.86,1-3.8,1.29-8.08,3.86-11.21,3.28-4,8.64-5.46,13.62-6.85,16.87-4.72,33.41-10.81,50-16.33l42.58-14.86s6-1.68,5.39-7.26l31.71-4.53Z" transform="translate(0 -0.92)"/>
        <path class="cls-8" d="M137.38,481.73h0c-5.57-.21-12.63-.94-17.82-4.83a.41.41,0,0,1-.17-.41c.06-.4,6.38-40,10.21-54.24,2.48-9.25,4.84-18.63,7.11-27.69l.18-.7q1.65-6.58,3.32-13.16c.23-.87.42-1.79.6-2.68.65-3,1.31-6.21,3.35-8.69,3.34-4.07,8.61-5.54,13.71-7l.12,0c12-3.34,24-7.45,35.56-11.42,4.74-1.62,9.64-3.3,14.46-4.9l42.58-14.86c.26-.07,5.68-1.66,5.09-6.8a.44.44,0,0,1,.37-.48l31.72-4.53a.44.44,0,0,1,.45.24l13.55,28.15a.4.4,0,0,1,0,.32q-.81,2.56-1.67,5.13c-1.31,3.95-2.66,8-3.67,12.1-1.4,5.59-4.43,13.42-10.94,19-7.8,6.69-16.7,6.61-26.14,6.54l-3,0H231.84c-5.1,0-10.19,0-15.28,0-14.06,0-28.59.09-42.89-.2l-.82,0c-2.74-.07-6.16-.17-8,1.82-1.18,1.25-1.56,3.13-1.79,5a116.86,116.86,0,0,0-.58,14.21c0,8.24,0,16.77-3.25,24.84a153.86,153.86,0,0,1-9.39,18.47c-2.61,4.6-5.31,9.35-7.56,14.22a68.52,68.52,0,0,0-4.45,12.27A.44.44,0,0,1,137.38,481.73Zm-17.1-5.37c4.87,3.54,11.46,4.27,16.77,4.49a69.76,69.76,0,0,1,4.41-12.08c2.27-4.9,5-9.68,7.59-14.29a152.9,152.9,0,0,0,9.35-18.36c3.18-7.92,3.18-16.36,3.18-24.52a116.58,116.58,0,0,1,.59-14.31c.25-2,.66-4,2-5.46,2.14-2.27,5.77-2.16,8.69-2.08l.81,0c14.28.29,28.81.25,42.86.2,5.1,0,10.19,0,15.29,0h24.49l3,0c9.26.08,18,.15,25.57-6.33,6.34-5.44,9.29-13.1,10.65-18.56,1-4.09,2.38-8.19,3.7-12.16.54-1.65,1.09-3.3,1.62-5l-13.34-27.7-31,4.42c.33,5.55-5.67,7.29-5.73,7.31l-42.56,14.85c-4.83,1.6-9.72,3.28-14.46,4.9-11.61,4-23.61,8.09-35.61,11.44l-.12,0c-5,1.39-10.1,2.82-13.27,6.68-1.91,2.32-2.55,5.37-3.17,8.32-.18.9-.38,1.83-.61,2.72q-1.66,6.57-3.32,13.15l-.18.7c-2.27,9.07-4.63,18.44-7.11,27.7C126.77,436.1,120.83,472.9,120.28,476.36Z" transform="translate(0 -0.92)"/>
      </g>
      <g>
        <path class="cls-11" d="M303.1,245.63c2.29,1.54,8.76,4.86,20.27,3.07l20.13,13.82c3.53,2.43,7.14,4.67,10.55,7.29a4.34,4.34,0,0,1,1.37,1.46,4.48,4.48,0,0,1,.31,1.82c.44,17.74-.59,35.51.6,53.22.38,5.63,1,11.47-.45,17-.66,2.63-1.95,5-2.82,7.58-1.11,3.29-2.38,6.56-3.64,9.8a8.62,8.62,0,0,0-.59,5.7,1.2,1.2,0,0,1,.09.59,1,1,0,0,1-.42.57c-4.19,3.62-8.41,7.29-13.73,9.12-4.32,2-12.14,4.11-15.7-.19a14.57,14.57,0,0,1-2.13-4,55,55,0,0,1-4.25-18.64,7.88,7.88,0,0,1,1.51-1.48c-.67-2.3-3.27-7.53-1-9.59l-1.37-3.14-10.23,8.68L269.8,326.88a6.75,6.75,0,0,0-1.26-.7c-3-1.18-6.93-1.16-10-1.32a4.71,4.71,0,0,1-2.41-.56,4.18,4.18,0,0,1-1.23-1.55c-1.36-2.51-2.83-5.31-2.13-8.18q4.37-17.74,8.72-35.49a65.48,65.48,0,0,1,1.91-6.74c.79-2.15,2.25-4,2.91-6.2,1-3.37,1.22-7.11,3.24-10.12a12.83,12.83,0,0,1,5.42-4.34c4-1.84,8.42-2.23,12.77-2.39,2.21-.08,4.43-.08,6.65-.19,1,0,4.82.43,5.57,0a4.83,4.83,0,0,0,2.17-3A.65.65,0,0,1,303.1,245.63Z" transform="translate(0 -0.92)"/>
        <path class="cls-11" d="M325.34,379.46a8.2,8.2,0,0,1-6.61-2.69,14.78,14.78,0,0,1-2.19-4.12,55.44,55.44,0,0,1-4.29-18.78c0-.28.86-1.19,1.45-1.65-.12-.38-.28-.81-.45-1.28-1-2.68-2.3-6.32-.59-8.25l-1-2.34-9.78,8.3a.42.42,0,0,1-.52,0l-31.78-21.45a7.1,7.1,0,0,0-1.18-.65c-2.44-1-5.62-1.11-8.42-1.22l-1.46-.07a5.15,5.15,0,0,1-2.64-.63,4.7,4.7,0,0,1-1.36-1.7c-1.3-2.4-2.93-5.39-2.17-8.49l8.74-35.59a65.59,65.59,0,0,1,1.9-6.69,22.78,22.78,0,0,1,1.42-2.94,18,18,0,0,0,1.49-3.23c.32-1.06.57-2.18.81-3.27a19.69,19.69,0,0,1,2.48-7,13.08,13.08,0,0,1,5.6-4.49c4.05-1.87,8.61-2.28,12.93-2.43,1,0,1.91-.06,2.87-.08,1.26,0,2.52-.05,3.78-.11.36,0,1,0,1.74.07a14.17,14.17,0,0,0,3.63,0,4.42,4.42,0,0,0,2-2.72,1.08,1.08,0,0,1,1.66-.73h0c2.21,1.5,8.58,4.77,19.95,3a.42.42,0,0,1,.31.07l20.14,13.82c1.1.76,2.2,1.5,3.31,2.23,2.41,1.61,4.9,3.27,7.25,5.08a4.77,4.77,0,0,1,1.5,1.61,4.69,4.69,0,0,1,.35,2c.18,7.1.12,14.31.06,21.28-.08,10.48-.17,21.31.54,31.93l.11,1.49c.36,5.18.74,10.54-.57,15.67a32.57,32.57,0,0,1-1.64,4.57c-.41,1-.84,2-1.19,3-1.07,3.18-2.24,6.2-3.65,9.83a8.18,8.18,0,0,0-.58,5.41,1.53,1.53,0,0,1,.11.8,1.49,1.49,0,0,1-.57.82l-.13.11c-4.12,3.57-8.39,7.25-13.74,9.09A25.48,25.48,0,0,1,325.34,379.46ZM313.13,354a54.34,54.34,0,0,0,4.22,18.35,13.81,13.81,0,0,0,2,3.89c3.12,3.77,10.13,2.4,15.18.08,5.24-1.8,9.44-5.43,13.51-8.95l.13-.11c.1-.08.26-.22.28-.32a1,1,0,0,0-.07-.33,9,9,0,0,1,.58-6c1.41-3.61,2.58-6.63,3.64-9.78.36-1.06.79-2.09,1.21-3.09a32.86,32.86,0,0,0,1.6-4.46c1.27-5,.9-10.28.54-15.39l-.1-1.49c-.72-10.65-.63-21.5-.54-32,.05-7,.11-14.18-.06-21.25a4.1,4.1,0,0,0-.27-1.64,4,4,0,0,0-1.25-1.31c-2.33-1.79-4.81-3.44-7.2-5-1.11-.74-2.22-1.47-3.32-2.23l-20-13.73c-11.56,1.76-18.11-1.62-20.4-3.16h0a.19.19,0,0,0-.18,0,.22.22,0,0,0-.14.18,5.13,5.13,0,0,1-2.39,3.31c-.56.33-2.06.27-4.12.14a16.11,16.11,0,0,0-1.64-.07c-1.27.06-2.53.08-3.8.11l-2.86.07c-4.89.18-8.9.65-12.6,2.35a12.35,12.35,0,0,0-5.24,4.19,19,19,0,0,0-2.35,6.68c-.25,1.1-.5,2.24-.83,3.33a19.41,19.41,0,0,1-1.56,3.4,20.3,20.3,0,0,0-1.36,2.82,64.25,64.25,0,0,0-1.88,6.6l0,.09-8.72,35.49c-.68,2.78.86,5.61,2.1,7.88a3.65,3.65,0,0,0,1.08,1.39,4.31,4.31,0,0,0,2.19.48l1.46.07c2.87.12,6.12.25,8.7,1.29a7.65,7.65,0,0,1,1.35.74l31.5,21.26,10-8.47a.43.43,0,0,1,.38-.1.45.45,0,0,1,.29.25l1.37,3.15a.41.41,0,0,1-.1.49c-1.61,1.47-.28,5.13.6,7.54.22.62.42,1.17.55,1.61a.45.45,0,0,1-.06.36.38.38,0,0,1-.23.18A11.13,11.13,0,0,0,313.13,354Z" transform="translate(0 -0.92)"/>
      </g>
      <g>
        <path class="cls-10" d="M142.59,529.83s-4.78-11.43-34.08-10.18L110,530.89l27.4,5.3S143.1,534.72,142.59,529.83Z" transform="translate(0 -0.92)"/>
        <path class="cls-10" d="M137.38,536.62h-.08l-27.41-5.29a.44.44,0,0,1-.34-.37l-1.47-11.25a.4.4,0,0,1,.1-.33.4.4,0,0,1,.31-.15c29.25-1.25,34.3,10,34.5,10.44l0,.13c.54,5.19-5.47,6.8-5.53,6.81Zm-27-6.09,27,5.21c.72-.21,5.18-1.66,4.8-5.79-.4-.82-6-10.93-33.16-9.89Z" transform="translate(0 -0.92)"/>
      </g>
      <g>
        <path class="cls-9" d="M325.57,187.09a5.59,5.59,0,0,0-3.93-4.17,46.06,46.06,0,0,0-9.6-2c-6.78-.42-18,1.62-20.45,9.22A15,15,0,0,0,291,194c-.31,5.15.32,10.09.48,15.22.1,3.26-1.27,5.74-2.28,8.71a14.11,14.11,0,0,0,.82,10.25,26.14,26.14,0,0,0,6.69,8.41c2.48,2.21,4.81,4.12,7.67,4.85a10,10,0,0,0,7.72-1.07s13.09-5.85,18.25-15a14.14,14.14,0,0,0,1.43-10Z" transform="translate(0 -0.92)"/>
        <path class="cls-9" d="M307,242.19a8.79,8.79,0,0,1-2.7-.38c-3-.76-5.39-2.77-7.82-4.93a26.38,26.38,0,0,1-6.79-8.55,14.51,14.51,0,0,1-.84-10.58c.24-.72.5-1.4.76-2.07a16.16,16.16,0,0,0,1.5-6.49c-.06-1.72-.16-3.46-.27-5.14a82.59,82.59,0,0,1-.21-10.11,15,15,0,0,1,.6-3.9c2.55-7.78,13.89-9.95,20.89-9.51a44.87,44.87,0,0,1,9.68,2A6,6,0,0,1,326,187l6.22,28.27a14.54,14.54,0,0,1-1.47,10.32c-5.17,9.13-17.91,14.9-18.45,15.14A10.49,10.49,0,0,1,307,242.19Zm3.32-60.85c-6.72,0-16.07,2.26-18.27,9a14.59,14.59,0,0,0-.56,3.67,81.07,81.07,0,0,0,.22,10c.1,1.68.21,3.43.26,5.16a16.8,16.8,0,0,1-1.55,6.83c-.25.66-.51,1.33-.75,2a13.6,13.6,0,0,0,.8,9.93,25.75,25.75,0,0,0,6.59,8.27c2.35,2.09,4.69,4,7.48,4.75a9.65,9.65,0,0,0,7.4-1c.17-.08,13.06-5.92,18.09-14.8a13.67,13.67,0,0,0,1.39-9.71l-6.22-28.26a5.15,5.15,0,0,0-3.63-3.84,44.69,44.69,0,0,0-9.5-1.94C311.46,181.36,310.88,181.34,310.27,181.34Z" transform="translate(0 -0.92)"/>
      </g>
      <g>
        <path class="cls-12" d="M142.74,530c-.1.85-2,5.24-31.18-1.52,0,0-3.33-14-10.3-19.3-2.91-2.21-5.93-1.48-9.05-.35a39.05,39.05,0,0,0-7,3.35c-1.59,1-4,2.17-4.6,4.07.23-.66,4.59.63,5.13.79a30.14,30.14,0,0,1,5.34,2.08,15.52,15.52,0,0,1,7.24,7.75c-1.69.31-3.39.56-5.09.8-1.54.21-3.08.4-4.63.55a39.92,39.92,0,0,1-4.73.49,14.8,14.8,0,0,1-3.22-.57l-4.09-1c-.33-.08-1.7-.65-2-.48s-.27,1-.28,1.32a4.77,4.77,0,0,0,1,3.57c2.13,2.21,6.08,2.9,9,3.07,5,.28,10.06-.41,15.1-.22a68.74,68.74,0,0,1,10.82,1L125,538.44s21.64,5.2,17.74-8.44Z" transform="translate(0 -0.92)"/>
        <path class="cls-12" d="M133.33,539.85a40.25,40.25,0,0,1-8.4-1l-14.81-3.08a65.54,65.54,0,0,0-10.19-.92l-.57,0c-2.38-.1-4.8,0-7.15.12a77.93,77.93,0,0,1-7.95.09c-3-.17-7-.87-9.28-3.2A5.08,5.08,0,0,1,73.84,528c0-.88.13-1.45.5-1.67s.83-.08,1.91.3l.38.13,4.1,1a14.61,14.61,0,0,0,3.12.56,18,18,0,0,0,3-.28c.56-.08,1.12-.16,1.68-.21,1.41-.14,2.92-.32,4.61-.55s3.18-.46,4.54-.7a15.21,15.21,0,0,0-6.84-7,28.11,28.11,0,0,0-5.25-2,15.67,15.67,0,0,0-4.66-1,.45.45,0,0,1-.49.15.44.44,0,0,1-.27-.56s0,0,0,0c.66-1.82,2.65-3,4.25-3.94l.52-.3a40.19,40.19,0,0,1,7.1-3.39c3.06-1.1,6.31-2,9.46.41,6.57,5,9.89,17.28,10.39,19.29,21.92,5.05,28.11,3.77,29.85,2.54.46-.32.54-.6.55-.71a.62.62,0,0,1,.07-.19.45.45,0,0,1,.44-.22.43.43,0,0,1,.37.3c.91,3.17.54,5.65-1.09,7.34C140.14,539.27,136.66,539.85,133.33,539.85Zm-35.85-5.92c.64,0,1.28,0,1.92,0l.56,0a65.15,65.15,0,0,1,10.33.94L125.12,538c.14,0,12.27,2.88,16.36-1.4,1.23-1.28,1.6-3.12,1.12-5.49a2,2,0,0,1-.34.28c-2.28,1.6-9.47,2.47-30.8-2.46a.46.46,0,0,1-.33-.33c0-.13-3.37-13.91-10.13-19.06-2.81-2.13-5.81-1.31-8.64-.29a39.92,39.92,0,0,0-7,3.32l-.53.31a10.82,10.82,0,0,0-3.51,2.77,21.51,21.51,0,0,1,4.46,1,29.23,29.23,0,0,1,5.42,2.11,15.89,15.89,0,0,1,7.44,8,.44.44,0,0,1,0,.37.4.4,0,0,1-.3.22c-1.52.27-3.14.52-5.11.8-1.7.23-3.22.41-4.65.55-.54,0-1.09.13-1.64.21a18.33,18.33,0,0,1-3.14.28,14.71,14.71,0,0,1-3.32-.58l-4.09-1-.45-.15a9.43,9.43,0,0,0-1.18-.35,7.3,7.3,0,0,0-.08.9,4.37,4.37,0,0,0,.89,3.29c2.16,2.24,6.38,2.8,8.71,2.93a76.24,76.24,0,0,0,7.86-.09C93.91,534,95.7,533.93,97.48,533.93ZM81,516.43Z" transform="translate(0 -0.92)"/>
      </g>
      <path class="cls-13" d="M260.49,270.93H281a6.21,6.21,0,0,1,6.18,5.5c1.33,11.46,2.15,36.77-16.44,36.42,0,0-21.69,3.75-16.46-36.53A6.22,6.22,0,0,1,260.49,270.93Z" transform="translate(0 -0.92)"/>
      <g>
        <path class="cls-9" d="M320.89,324.87a87.62,87.62,0,0,1-9.84-12.21c-2.68-4-4.92-8.17-7.21-12.35-1.19-2.18-2.42-4.29-3.65-6.45,0-3.43.27-7,0-10.39-.1-1.41-.78-3-2.13-3.37a4.72,4.72,0,0,0-2,0c-3.18.38-6.37.62-9.56.9-1.76-1.08-4.31-2.88-6.08-3h-.26a2.62,2.62,0,0,0-1.23.39,4.21,4.21,0,0,0-2,2.79A3.47,3.47,0,0,0,278,284.3c-1.54,2.13-2.26,4.55-1.11,7.1l1.49,2c-.13-.18-1.62,1-1.72,1.09a3.63,3.63,0,0,0-.85,3.94c1.33,3.72,4.68,6.62,7.57,9.14,3.11,2.72,6.35,5.32,10.49,6.17l4.53.93s7.1,10,15.14,29a4.59,4.59,0,0,0,7.88,1q2.64-3.47,5.29-6.94c2.3-3,2.84-3.65-.06-7.11C325.47,329.18,322.17,326.16,320.89,324.87Z" transform="translate(0 -0.92)"/>
        <path class="cls-9" d="M317.78,346.86a4.87,4.87,0,0,1-.65-.05,5,5,0,0,1-4-3c-7.42-17.55-14.12-27.48-15-28.74-2.71-.56-3.86-.8-4.34-1l0,.07c-4.25-.87-7.61-3.57-10.69-6.26l-.11-.1c-2.92-2.55-6.23-5.44-7.57-9.23a4,4,0,0,1,.94-4.38,10.32,10.32,0,0,1,1.34-1l-1.15-1.51,0-.09c-1-2.33-.72-4.76.95-7.23a4,4,0,0,1-.94-3.32,4.66,4.66,0,0,1,2.25-3.08,2.87,2.87,0,0,1,1.45-.45,1.51,1.51,0,0,1,.3,0c1.58.13,3.66,1.45,5.33,2.51l.82.51,2-.17c2.44-.21,5-.43,7.42-.72a5,5,0,0,1,2.15,0c1.64.51,2.34,2.34,2.44,3.76.17,2.28.11,4.64.05,6.93,0,1.13-.05,2.26-.06,3.38l.52.89c1,1.78,2.07,3.62,3.08,5.46l.8,1.46c2,3.63,4,7.38,6.39,10.86a86.56,86.56,0,0,0,9.79,12.14c.43.43,1.07,1.05,1.79,1.73,1.49,1.44,3.19,3.06,4,4,3,3.56,2.53,4.43.14,7.57l-5.36,7A5,5,0,0,1,317.78,346.86ZM294,313.29l4.53.93a.39.39,0,0,1,.26.17c.08.1,7.22,10.22,15.19,29.05a4.16,4.16,0,0,0,7.13.92l5.36-7c2.2-2.88,2.54-3.32-.11-6.48-.76-.91-2.51-2.58-3.92-3.93-.72-.69-1.38-1.32-1.8-1.75h0a87.13,87.13,0,0,1-9.9-12.27c-2.38-3.51-4.44-7.28-6.43-10.92l-.8-1.46c-1-1.84-2.06-3.67-3.08-5.45l-.57-1a.54.54,0,0,1-.05-.22c0-1.16,0-2.33.06-3.51a68,68,0,0,0-.05-6.85c-.09-1.14-.62-2.61-1.83-3a4.36,4.36,0,0,0-1.8,0c-2.48.3-5,.51-7.45.72l-2.12.18a.4.4,0,0,1-.26-.06l-.95-.59c-1.59-1-3.58-2.26-4.94-2.38h-.22a2.19,2.19,0,0,0-1,.34,3.7,3.7,0,0,0-1.83,2.49,3,3,0,0,0,.93,2.79.42.42,0,0,1,.06.57c-1.67,2.32-2,4.49-1.08,6.63.19.27,1.31,1.75,1.45,1.93h0a.44.44,0,0,1-.1.6.42.42,0,0,1-.3.08,10.7,10.7,0,0,0-1.38,1,3.17,3.17,0,0,0-.74,3.47c1.27,3.57,4.49,6.38,7.33,8.87l.11.1c3.12,2.72,6.25,5.23,10.3,6.06ZM278,293.64Z" transform="translate(0 -0.92)"/>
      </g>
      <g>
        <path class="cls-11" d="M313.16,342.78c-2.77,1.26.36,7.29,1,9.59a7.81,7.81,0,0,0-1.5,1.48,54.75,54.75,0,0,0,4.24,18.64,14.81,14.81,0,0,0,2.12,4c3.57,4.3,11.38,2.17,15.7.19,5.33-1.83,9.55-5.5,13.74-9.12a1.07,1.07,0,0,0,.42-.57,1.2,1.2,0,0,0-.09-.59,6.53,6.53,0,0,1-.15-3.2s-3.06-2-3.06-4.73-.7-15.39-2.3-18.29c-1-1.73-2.35-4.55-3.31-6.53a3.2,3.2,0,0,0-3.37-1.75,9,9,0,0,1-3.11,0,18.73,18.73,0,0,1-5-2.39s-2.1-2.5-4.4,1.29C324.13,330.8,315.36,341.79,313.16,342.78Z" transform="translate(0 -0.92)"/>
        <path class="cls-11" d="M325.33,379.46a8.18,8.18,0,0,1-6.61-2.69,14.78,14.78,0,0,1-2.19-4.12,55.45,55.45,0,0,1-4.28-18.78c0-.3.85-1.2,1.44-1.66-.14-.4-.33-.9-.54-1.46-1.1-2.86-2.75-7.19-.16-8.36,1.72-.78,8.38-8.82,10.8-11.86.85-1.4,1.82-2.18,2.87-2.26a2.73,2.73,0,0,1,2.15.91,18.31,18.31,0,0,0,4.81,2.3,8.49,8.49,0,0,0,2.95,0,3.64,3.64,0,0,1,3.82,2c1.44,3,2.55,5.16,3.3,6.52,1.7,3.08,2.35,16.38,2.35,18.49,0,2.42,2.85,4.35,2.87,4.37a.41.41,0,0,1,.19.43,6.09,6.09,0,0,0,.13,3,1.64,1.64,0,0,1,.11.8,1.48,1.48,0,0,1-.57.82l-.13.11c-4.13,3.57-8.4,7.25-13.75,9.09A25.36,25.36,0,0,1,325.33,379.46ZM313.13,354a54.5,54.5,0,0,0,4.2,18.35,14.42,14.42,0,0,0,2.06,3.89c3.12,3.77,10.13,2.4,15.18.08,5.23-1.8,9.44-5.43,13.5-8.94l.14-.12c.1-.09.26-.22.28-.32a1,1,0,0,0-.07-.33,7,7,0,0,1-.22-3.19c-.75-.55-3-2.45-3-4.92,0-2.78-.73-15.32-2.25-18.08-.75-1.36-1.87-3.57-3.32-6.55a2.78,2.78,0,0,0-2.92-1.51,9.28,9.28,0,0,1-3.26,0,19.5,19.5,0,0,1-5.15-2.46l-.09-.09a1.91,1.91,0,0,0-1.47-.64c-.74.06-1.51.71-2.22,1.89-.93,1.18-8.93,11.14-11.16,12.15l-.18-.4.18.4c-1.84.83-.36,4.7.62,7.26.27.71.51,1.33.64,1.81a.42.42,0,0,1-.05.36.44.44,0,0,1-.23.18A11.11,11.11,0,0,0,313.13,354Z" transform="translate(0 -0.92)"/>
      </g>
      <path class="cls-14" d="M300.15,229a2.41,2.41,0,0,1-1.14-.29c-1.77-1-2.06-4-2.09-4.34a.65.65,0,0,1,1.3-.1c0,.68.43,2.77,1.42,3.3a1.59,1.59,0,0,0,1.55-.19,21.72,21.72,0,0,0,3.63-2.21.58.58,0,0,1,.44-.26.62.62,0,0,1,.49.2s4.21,3.8,8.95,2,4.9-4.77,4.9-4.8a.65.65,0,0,1,.65-.63h0a.66.66,0,0,1,.63.68c0,.15-.21,3.92-5.75,6-4.59,1.7-8.55-.93-9.84-1.94a35.91,35.91,0,0,1-3.5,2.08A3.5,3.5,0,0,1,300.15,229Z" transform="translate(0 -0.92)"/>
      <path class="cls-15" d="M330.22,202.1c-7.53-2.12-16.93-1.43-16.93-1.43,0,4.73,1,11.73,6.17,13.68a7.6,7.6,0,0,0,7.59-1.67C329.91,210.08,330.9,205.82,330.22,202.1Z" transform="translate(0 -0.92)"/>
      <path class="cls-4" d="M323.62,215a1.3,1.3,0,0,1-1.3-1.3V201.64a1.3,1.3,0,0,1,2.6,0v12.05A1.3,1.3,0,0,1,323.62,215Z" transform="translate(0 -0.92)"/>
      <path class="cls-15" d="M304.11,207.48c-.44-5.77-1.21-7-1.21-7s-8.34.87-14.32,3.35a21.07,21.07,0,0,0,3,8.51A9,9,0,0,0,296,216a5.91,5.91,0,0,0,5.54-.8,6.48,6.48,0,0,0,2.05-3.38A12.38,12.38,0,0,0,304.11,207.48Z" transform="translate(0 -0.92)"/>
      <path class="cls-4" d="M299.59,216.76h-.14a1.29,1.29,0,0,1-1.15-1.43,117.62,117.62,0,0,0,.11-13.07,1.29,1.29,0,0,1,1.23-1.36,1.31,1.31,0,0,1,1.36,1.24,113.57,113.57,0,0,1-.12,13.47A1.29,1.29,0,0,1,299.59,216.76Z" transform="translate(0 -0.92)"/>
      <path class="cls-4" d="M289.53,195.05a.58.58,0,0,1-.26-.06.64.64,0,0,1-.33-.86c.07-.16,1.84-4.06,5.11-4.51,2.08-.28,4.2.88,6.32,3.46a.65.65,0,0,1-.08.91.66.66,0,0,1-.92-.08c-1.82-2.21-3.54-3.21-5.14-3-2.56.35-4.09,3.72-4.11,3.75A.64.64,0,0,1,289.53,195.05Z" transform="translate(0 -0.92)"/>
      <path class="cls-4" d="M313.29,194.37a.65.65,0,0,1-.41-.15.64.64,0,0,1-.09-.91c.07-.08,6.47-7.69,15.84-1.54a.65.65,0,0,1,.18.9.66.66,0,0,1-.9.19c-8.37-5.5-13.88,1-14.11,1.28A.68.68,0,0,1,313.29,194.37Z" transform="translate(0 -0.92)"/>
      <g>
        <path class="cls-6" d="M330.22,203.06a.67.67,0,0,1-.24,0c-7.29-2.06-16.53-1.41-16.62-1.41a.85.85,0,0,1-.93-.8.87.87,0,0,1,.8-.93c.39,0,9.64-.67,17.23,1.47a.86.86,0,0,1,.59,1.07A.85.85,0,0,1,330.22,203.06Z" transform="translate(0 -0.92)"/>
        <path class="cls-6" d="M321.74,215.28a6.94,6.94,0,0,1-2.44-.44c-5.56-2.11-6.42-9.73-6.44-14.09a.43.43,0,0,1,.43-.43h0a.44.44,0,0,1,.44.43c0,4.13.8,11.36,5.88,13.28a7.2,7.2,0,0,0,7.15-1.59,11.19,11.19,0,0,0,3-10.17.44.44,0,0,1,.35-.51.45.45,0,0,1,.51.35,12.07,12.07,0,0,1-3.31,11A8.47,8.47,0,0,1,321.74,215.28Z" transform="translate(0 -0.92)"/>
      </g>
      <path class="cls-14" d="M333.25,219.93a.42.42,0,0,1-.42-.39.43.43,0,0,1,.37-.48c.82-.1,3.3-.39,4.13-1.77a1.8,1.8,0,0,0,.13-1.76,2.1,2.1,0,0,0-1.7-1.07.44.44,0,0,1-.3-.17.43.43,0,0,1-.08-.34,5.18,5.18,0,0,1,4-4.08.45.45,0,0,1,.53.32.44.44,0,0,1-.32.53,4.27,4.27,0,0,0-3.22,3,2.86,2.86,0,0,1,1.89,1.46,2.65,2.65,0,0,1-.16,2.59c-.93,1.56-3.17,2-4.76,2.19Z" transform="translate(0 -0.92)"/>
      <g>
        <path class="cls-6" d="M298.09,217.07a6.66,6.66,0,0,1-2.23-.38,9.48,9.48,0,0,1-4.66-3.81,21.46,21.46,0,0,1-3-8.69.42.42,0,0,1,.36-.49.44.44,0,0,1,.5.36,20.3,20.3,0,0,0,2.91,8.34,8.62,8.62,0,0,0,4.21,3.47,5.44,5.44,0,0,0,5.12-.73,6.11,6.11,0,0,0,1.91-3.15,15.66,15.66,0,0,0,.4-2.85c0-.47.07-.93.13-1.39a.43.43,0,1,1,.86.1c-.06.45-.09.9-.13,1.35a15.16,15.16,0,0,1-.43,3,7,7,0,0,1-2.19,3.6A5.92,5.92,0,0,1,298.09,217.07Z" transform="translate(0 -0.92)"/>
        <g>
          <path class="cls-4" d="M303.55,217.48h-.11a.65.65,0,0,1-.54-.75,41.48,41.48,0,0,0-.4-15.81.65.65,0,0,1,.47-.79.64.64,0,0,1,.79.46,42.11,42.11,0,0,1,.43,16.35A.66.66,0,0,1,303.55,217.48Z" transform="translate(0 -0.92)"/>
          <path class="cls-6" d="M288.59,205a.87.87,0,0,1-.8-.53.85.85,0,0,1,.47-1.13c6-2.5,14.22-3.38,14.56-3.42a.87.87,0,1,1,.18,1.73c-.08,0-8.28.89-14.08,3.29A1,1,0,0,1,288.59,205Z" transform="translate(0 -0.92)"/>
        </g>
      </g>
      <path class="cls-14" d="M299.87,197.86a16.16,16.16,0,0,0-9.32,1.76c0,.18,0,.35,0,.52s0,.17,0,.26v.13s0,.11.05,0l.34-.19.45-.22.62-.28c.25-.11.51-.21.77-.3s.61-.21.92-.3l1-.27c.39-.09.78-.16,1.17-.22s.84-.1,1.27-.13.9,0,1.36,0,.79,0,1.19.08a.43.43,0,0,0,.1-.86Z" transform="translate(0 -0.92)"/>
      <path class="cls-14" d="M325.83,198.73l-.1,0a32.28,32.28,0,0,0-12.35-.57.44.44,0,0,1-.51-.35.42.42,0,0,1,.34-.5,32.38,32.38,0,0,1,12.72.58.44.44,0,0,1-.1.86Z" transform="translate(0 -0.92)"/>
      <path class="cls-14" d="M300.74,293.6a16.93,16.93,0,0,0-1.9-3.29c-.76-1.15-1.53-2.29-2.36-3.4-2-2.64-5.47-4.35-8.57-5.85l-1.15-.57c-.13-.06-.92-.56-1-.49s.66.68.75.76c.3.28.59.56.9.82a10.63,10.63,0,0,0,2.1,1.26c.72.35,1.4.7,2.1,1.11a15.54,15.54,0,0,1,3.64,2.81,7,7,0,0,1,.55.67c1.51,2,2.69,4.27,4.2,6.27.23.3.48.61.75.9a6.24,6.24,0,0,0,.71.66A10.85,10.85,0,0,0,300.74,293.6Z" transform="translate(0 -0.92)"/>
      <path class="cls-14" d="M288.05,291.37l-10.6-7.63c-.11-.08-.35-.16-.41,0s.21.49.3.62a6,6,0,0,0,1.09,1.1c2.11,1.75,4.43,3.24,6.65,4.83l1.75,1.27a5.11,5.11,0,0,1,.71.51.49.49,0,0,0,.25.08.44.44,0,0,0,.26-.79Z" transform="translate(0 -0.92)"/>
      <path class="cls-14" d="M283.46,295.4a3.63,3.63,0,0,0-.56-.21,17.56,17.56,0,0,1-3.4-1.59c-.54-.31-1.06-.64-1.57-1-.26-.17-.51-.35-.77-.51a1.64,1.64,0,0,0-.64-.25c0,.47.6,1,.93,1.26a13.72,13.72,0,0,0,5.54,3c.32.09,1,.05.78-.47A.71.71,0,0,0,283.46,295.4Z" transform="translate(0 -0.92)"/>
      <path class="cls-14" d="M230.71,242.69a.44.44,0,0,1-.39-.24.43.43,0,0,1,.19-.58c.52-.27,1-.57,1.55-.86a15.42,15.42,0,0,1,4.08-1.86,14.07,14.07,0,0,1,6-.05,37.17,37.17,0,0,1,7.76,2.71.43.43,0,0,1-.35.79A37.56,37.56,0,0,0,242,240a13.2,13.2,0,0,0-5.61,0,14.67,14.67,0,0,0-3.85,1.77c-.52.3-1.05.6-1.58.88A.49.49,0,0,1,230.71,242.69Z" transform="translate(0 -0.92)"/>
      <path class="cls-14" d="M241,244.34c-6.36-2.2-11.69-3-15.8-2.33a1,1,0,0,1-.92-.31c-.74-.83-1.45-1.71-2.14-2.57s-1.45-1.81-2.22-2.68a15.33,15.33,0,0,0-6.26-4.58,5.92,5.92,0,0,0-4.58,0,1.87,1.87,0,0,0-.37,3.1,34.81,34.81,0,0,1,2.66,2.49c.52.54,1,1.1,1.52,1.67s.88,1.42,1.41,1.68c-.14-1.46-1.51-3.13-2.51-4.14-.18-.19-.37-.36-.55-.54-.65-.61-1.28-1.25-2-1.83a1,1,0,0,1-.35-.88,1,1,0,0,1,.55-.77,5.2,5.2,0,0,1,3.91,0A14.57,14.57,0,0,1,219.3,237c.76.85,1.49,1.76,2.19,2.64s1.41,1.76,2.17,2.61a1.86,1.86,0,0,0,1.7.58c4-.62,9.16.15,15.39,2.3a.36.36,0,0,0,.14,0,.43.43,0,0,0,.14-.84Z" transform="translate(0 -0.92)"/>
      <path class="cls-14" d="M207.78,232a2.82,2.82,0,0,1,.46.23c.16.1.91.74,1,.35a.45.45,0,0,0-.12-.4,5.7,5.7,0,0,0-1.92-.85c-.47-.12-1.59-.5-2-.07a1,1,0,0,0,.74.31A6.64,6.64,0,0,1,207.78,232Z" transform="translate(0 -0.92)"/>
      <path class="cls-16" d="M258.77,286.91h5.65a.68.68,0,0,1,.67.76l-.59,4.89a.68.68,0,0,1-.67.6h-4.47a.68.68,0,0,1-.68-.6l-.59-4.89A.68.68,0,0,1,258.77,286.91Z" transform="translate(0 -0.92)"/>
      <path class="cls-17" d="M283.29,249.58" transform="translate(0 -0.92)"/>
      <g class="cls-18">
        <path class="cls-19" d="M316.71,253.62a35.44,35.44,0,0,1-6.56-1.13,26.16,26.16,0,0,1-4.64-1.74,18.76,18.76,0,0,1-2.94-1.79,13.15,13.15,0,0,1-1.43-1.26c-.11-.12-.16-.18-.28,0s-.4.34-.43.48.06.15.13.23.33.31.51.46.58.52.88.76a18.27,18.27,0,0,0,2.88,1.8,25.56,25.56,0,0,0,4.53,1.79,35.87,35.87,0,0,0,6.41,1.21l.87.08h0a.42.42,0,0,0,.43-.39A.43.43,0,0,0,316.71,253.62Z" transform="translate(0 -0.92)"/>
      </g>
      <g class="cls-18">
        <path class="cls-19" d="M264.23,272.85a.41.41,0,0,1-.16,0,.44.44,0,0,1-.25-.56,16.22,16.22,0,0,1,7.06-8.15l.8-.44a11.23,11.23,0,0,0,1.9-1.17,4.61,4.61,0,0,0,1.54-3.48.43.43,0,0,1,.48-.38.44.44,0,0,1,.39.48,5.55,5.55,0,0,1-1.86,4.06,12.75,12.75,0,0,1-2,1.26l-.78.42a15.37,15.37,0,0,0-6.68,7.72A.43.43,0,0,1,264.23,272.85Z" transform="translate(0 -0.92)"/>
      </g>
      <g class="cls-18">
        <path class="cls-19" d="M253.79,294a.4.4,0,0,0-.39.07,11,11,0,0,1-4.92,2.31,7.23,7.23,0,0,1-1.13.12c-.12,0-.44-.06-.53,0s-.07.54-.09.67.32.12.43.12a11.66,11.66,0,0,0,6.71-2.58A6,6,0,0,1,253.79,294Z" transform="translate(0 -0.92)"/>
      </g>
      <g class="cls-18">
        <path class="cls-19" d="M355.68,270.85a3.72,3.72,0,0,0-.53-.45,21.43,21.43,0,0,0-2.14-1.35,13.16,13.16,0,0,0-4.86-1.61c-3.13-.33-4.91.81-7.18,2.25a48,48,0,0,1-4.9,2.61c-1,.49-2,1-3,1.52-4.56,2.45-7.34,5.38-8.27,8.72a18.22,18.22,0,0,0-.48,4.75c0,.65,0,1.3-.06,1.95-.18,3.19-1.8,5.27-3.68,7.68l-.79,1a.44.44,0,0,0,.35.7.42.42,0,0,0,.34-.17c.26-.35.53-.68.79-1,1.88-2.42,3.66-4.7,3.86-8.16,0-.66,0-1.32.06-2a17.74,17.74,0,0,1,.44-4.53c.87-3.1,3.51-5.85,7.85-8.18,1-.53,2-1,3-1.51a48,48,0,0,0,5-2.66c2.2-1.4,3.8-2.42,6.62-2.12a12.14,12.14,0,0,1,4.38,1.43,19.42,19.42,0,0,1,1.91,1.16,14.16,14.16,0,0,0,1.69,1.25A1.21,1.21,0,0,0,355.68,270.85Z" transform="translate(0 -0.92)"/>
      </g>
      <g class="cls-18">
        <path class="cls-19" d="M284.09,249a3,3,0,0,0-1.34.55l-.72.54c-.57.43-1.13.88-1.68,1.34s-1.27,1.09-1.88,1.66-1.31,1.27-1.93,1.94-1.24,1.42-1.81,2.17a21.43,21.43,0,0,0-1.55,2.37,15.83,15.83,0,0,0-1.14,2.52,12.93,12.93,0,0,0-.47,1.83.43.43,0,0,0,.36.5H272a.44.44,0,0,0,.43-.36c1.29-7.74,12.31-14.83,12.43-14.91s.08-.16-.06-.18A2.8,2.8,0,0,0,284.09,249Z" transform="translate(0 -0.92)"/>
      </g>
      <g class="cls-18">
        <path class="cls-19" d="M348.67,363.64a.44.44,0,0,1-.24-.07c-.13-.09-3.25-2.2-3.25-5.09s-.73-15.32-2.25-18.08c-.75-1.36-1.87-3.57-3.32-6.55a2.78,2.78,0,0,0-2.92-1.51,12.05,12.05,0,0,1-3.23,0,6.62,6.62,0,0,1-1.5-.47c.54,2.38.6,8.69-10.41,16.23l-7.12,4.65A.44.44,0,0,1,314,352l7.12-4.64c13.07-8.95,9.82-16.05,9.79-16.12a.42.42,0,0,1,.08-.5.44.44,0,0,1,.5-.08,9.41,9.41,0,0,0,2.14.8,11.09,11.09,0,0,0,3,0,3.64,3.64,0,0,1,3.82,2c1.44,3,2.55,5.16,3.3,6.52,1.7,3.08,2.35,16.38,2.35,18.49,0,2.42,2.85,4.35,2.87,4.37a.44.44,0,0,1,.13.6A.47.47,0,0,1,348.67,363.64Z" transform="translate(0 -0.92)"/>
      </g>
      <g class="cls-18">
        <path class="cls-19" d="M331.59,330.79c-.09-.11-2.09-2.64-4.37-2.88a3,3,0,0,0-1.76.34L318.18,283a.44.44,0,0,0-.49-.36.43.43,0,0,0-.36.5l7.19,44.63.91.93a.81.81,0,0,1,.22,0l.68-.07a1.83,1.83,0,0,1,.95.14c1.86.3,3.61,2.5,3.62,2.52a.45.45,0,0,0,.34.17.44.44,0,0,0,.35-.7Z" transform="translate(0 -0.92)"/>
      </g>
      <g>
        <path class="cls-4" d="M352,236.65H321a34.81,34.81,0,0,0-4.24,17.11c.09,4.57,1.61,9.15,5.5,11.86.74.51,1.53,1,2.3,1.46a17.24,17.24,0,0,1-1.8-8.81s4.82,6.06,16.24,2.67l3.39,2.86s6.66-5,2.8-25.52c0,0,11.57,7.22,11.48,23.48,0-1,.86-2.46,1.07-3.47a26.82,26.82,0,0,0,.6-5.64,21.52,21.52,0,0,0-2.73-10.79A53.07,53.07,0,0,0,352,236.65Z" transform="translate(0 -0.92)"/>
        <path class="cls-4" d="M324.57,267.51a.5.5,0,0,1-.21-.05c-.71-.4-1.5-.9-2.34-1.49-3.56-2.48-5.58-6.81-5.69-12.2a35.43,35.43,0,0,1,4.3-17.33.43.43,0,0,1,.38-.22h31a.43.43,0,0,1,.35.17l-.35.26.39-.2a52.47,52.47,0,0,1,3.6,5.19,22,22,0,0,1,2.8,11,28.2,28.2,0,0,1-.61,5.73,10.47,10.47,0,0,1-.51,1.48,6.71,6.71,0,0,0-.56,1.91h0a.43.43,0,0,1-.43.43h0a.44.44,0,0,1-.43-.44h0a28.63,28.63,0,0,0-5.6-17.55,26.41,26.41,0,0,0-4.84-5c3.46,19.68-2.87,24.69-3.15,24.9a.44.44,0,0,1-.54,0l-3.21-2.71c-9.06,2.62-14-.58-15.75-2.14a17,17,0,0,0,1.8,7.61.43.43,0,0,1-.39.62Zm-3.3-30.42a34.38,34.38,0,0,0-4.07,16.66c.1,5.11,2,9.2,5.32,11.51l1.08.73a17.46,17.46,0,0,1-1.26-7.75.43.43,0,0,1,.77-.24c0,.05,4.8,5.79,15.78,2.53a.45.45,0,0,1,.4.08l3.09,2.61c1.14-1.19,5.71-7.23,2.39-24.86a.44.44,0,0,1,.18-.44.42.42,0,0,1,.47,0A28.33,28.33,0,0,1,357,259.14a6.39,6.39,0,0,0,.31-.94,27.14,27.14,0,0,0,.59-5.55,21,21,0,0,0-2.68-10.57,49,49,0,0,0-3.45-5Z" transform="translate(0 -0.92)"/>
      </g>
      <g>
        <path class="cls-6" d="M355.42,213.24a8.25,8.25,0,0,1-3.18-1.06.92.92,0,0,0-.45-.09,6.5,6.5,0,0,0-.93.11,3.37,3.37,0,0,1-.38.06l-.75,0a18.71,18.71,0,0,1-14.47-6.86,43.35,43.35,0,0,1-6-10.88l-.38-.89c-3.19-7.58-6.5-15.42-15-18.24a13.43,13.43,0,0,0-4.29-.7,11,11,0,0,0-9.64,5.12,20.3,20.3,0,0,1,1.69-5.16c2.79-5.2,8.38-8.27,15.33-8.43h.48c15.8,0,24,16.84,29.44,31.51C347,198.23,350.78,209.92,355.42,213.24Z" transform="translate(0 -0.92)"/>
        <path class="cls-6" d="M317.44,166.67c15.54,0,23.68,16.69,29,31.19.15.46,3.28,10.23,7.41,14.59a8.87,8.87,0,0,1-1.41-.64,1.26,1.26,0,0,0-.67-.16,6.08,6.08,0,0,0-1,.13l-.32.05h-.73a18.27,18.27,0,0,1-14.13-6.69,43,43,0,0,1-6-10.78l-.38-.89C326,185.81,322.7,177.88,314,175a14.08,14.08,0,0,0-4.43-.73,11.71,11.71,0,0,0-8.72,3.61,15.49,15.49,0,0,1,1.16-3c2.71-5.05,8.16-8,15-8.19h.47m0-.86H317c-6.44.14-12.57,2.81-15.7,8.65a25.12,25.12,0,0,0-2.17,7.89.11.11,0,0,0,.21.05c1.37-4.71,5.64-7.26,10.29-7.26a13.07,13.07,0,0,1,4.15.68c8.65,2.87,11.85,11.17,15.12,18.89a43.51,43.51,0,0,0,6.08,11,19.2,19.2,0,0,0,14.8,7h.76c.23,0,.91-.18,1.3-.18a.49.49,0,0,1,.24,0,8.61,8.61,0,0,0,3.43,1.12h.05a.42.42,0,0,0,.22-.76c-4.6-3.21-8.44-15.33-8.44-15.33-4.89-13.27-13.27-31.79-29.85-31.79Z" transform="translate(0 -0.92)"/>
      </g>
      <path class="cls-13" d="M287.34,276.79c0-.33-.08-.66-.13-1a6,6,0,0,0-6.18-4.88H260.49c-3.12,0-5.78,2-6.18,4.78l-.15,1.08Z" transform="translate(0 -0.92)"/>
      <rect class="cls-20" x="261.16" y="270" width="0.87" height="15.99"/>
      <g>
        <path class="cls-7" d="M99,507.79s4.37-.83,10.75,13.52c0,0,11.08-1.08,16.87-1.76l-10-17Z" transform="translate(0 -0.92)"/>
        <path class="cls-7" d="M109.75,521.75a.44.44,0,0,1-.4-.26c-6.07-13.66-10.23-13.27-10.28-13.27a.44.44,0,0,1-.48-.34.43.43,0,0,1,.29-.51l17.63-5.27a.42.42,0,0,1,.49.19l10,17a.45.45,0,0,1,0,.42.47.47,0,0,1-.34.24c-5.73.66-16.77,1.74-16.88,1.76Zm-9.13-14c1.9.92,5.26,3.87,9.4,13.09,1.76-.17,10.6-1.05,15.89-1.65L116.43,503Z" transform="translate(0 -0.92)"/>
      </g>
    </g>
  </g>
</svg>
